<?xml version="1.0" encoding="utf-8"?>
<!-- Generator: Adobe Illustrator 27.0.0, SVG Export Plug-In . SVG Version: 6.00 Build 0)  -->
<svg version="1.1" id="Layer_1" xmlns="http://www.w3.org/2000/svg" xmlns:xlink="http://www.w3.org/1999/xlink" x="0px" y="0px"
	 viewBox="0 0 261 187" style="enable-background:new 0 0 261 187;" xml:space="preserve">
<style type="text/css">
	.st0{clip-path:url(#SVGID_00000175297562978534143270000006220671055807367334_);}
	.st1{fill-rule:evenodd;clip-rule:evenodd;}
	.st2{clip-path:url(#SVGID_00000000908585319640800450000003939480143789346211_);}
	.st3{clip-path:url(#SVGID_00000036242214652917607320000012151130622815239296_);}
	.st4{clip-path:url(#SVGID_00000052081241119487122550000009857277267173473427_);}
</style>
<g>
	<defs>
		<rect id="SVGID_1_" x="29.9" y="82.5" width="28" height="42"/>
	</defs>
	<clipPath id="SVGID_00000098192744158178395260000010933939481613806994_">
		<use xlink:href="#SVGID_1_"  style="overflow:visible;"/>
	</clipPath>
	<g style="clip-path:url(#SVGID_00000098192744158178395260000010933939481613806994_);">
		<path class="st1" d="M42.8,93c-0.3-2.8-1.2-5.1-2.2-7.3c-0.2-0.5-0.5-1-0.9-1.5c-0.3-0.5-0.7-1-1.1-1.3c-0.1-0.1-0.3-0.1-0.4-0.2
			c-0.4-0.1-0.7,1.2-0.7,1.5c-0.1,1.6,0,3,0.3,4.2c0.3,1.2,0.7,2.4,1.2,3.5c0.5,1.2,1.1,2,1.8,2.9c0.5,0.7,1,1.3,1.6,1.9
			c0.2,0.2,0.5,0.4,0.6,0.6c0.1,0.2,0.2,0.3,0.2,0.5c0.1,0.2,0.2,0.3,0.2,0.5c-0.1,0.1-0.1,0.2-0.1,0.2c-0.1,0-0.1-0.2-0.2-0.2
			c0,0.1,0,0.2-0.1,0.3c-0.8-0.6-1.7-1-2.6-1.4c-1.8-0.9-3.7-1.6-6.1-2c-0.6-0.1-1.2-0.2-1.8-0.2c-0.6,0-1.4,0-1.9,0.2
			c-0.6,0.2-0.3,0.6,0,1c0.5,0.6,1.2,1,1.9,1.4c0.9,0.5,2,0.9,3.1,1.2c2,0.5,4.5,0.7,6.5,0.2c0.3-0.1,0.7-0.3,0.9-0.2
			c0.1,0,0.1,0.2,0.3,0.3c0.1,0,0.1-0.2,0.2-0.1c0.5,0.7,0.8,1.5,1.2,2.1c0.2,0.2,0.3,0.5,0.5,0.7c0.1,0.1,0.3,0.1,0.3,0.3
			c-0.1,0.1-0.2-0.2-0.3,0c0.1,0.1,0,0.2,0,0.3c-1.8-0.7-3.8-1.4-6.1-1.6c-1-0.1-2.4-0.2-3.5-0.1c-0.6,0-1.2,0-1.8,0.1
			c-0.5,0.1-1.1,0.2-1.5,0.4c-0.1,0.1-0.3,0.2-0.3,0.3c0,0.2,0.3,0.5,0.4,0.6c0.6,0.5,1.4,0.8,2.1,1c1.1,0.4,2.3,0.6,3.6,0.7
			c2.4,0.2,4.7-0.3,6.3-1.1c0.1-0.1,0.5-0.4,0.7-0.3c0.2,0.1-0.1,0.2,0.2,0.3c0.1-0.1,0-0.3,0.1-0.3c0.7,1.1,1.3,2.2,2,3.3
			c0.2,0.3,0.6,0.7,0.6,1.1c-0.2,0-0.1-0.1-0.3-0.1c0,0.1,0.1,0.2,0,0.3c-1.9-0.7-3.9-1.4-6.3-1.7c-1.2-0.1-2.5-0.1-3.7-0.1
			c-0.6,0-1.2,0.1-1.7,0.3c-0.4,0.1-1.3,0.3-1.3,0.7c0,0.2,0.3,0.4,0.5,0.6c0.6,0.5,1.4,0.8,2.1,1c1.1,0.4,2.2,0.6,3.6,0.7
			c1.3,0.1,2.8,0,3.9-0.3c0.8-0.2,1.7-0.4,2.4-0.8c0.2-0.1,0.6-0.4,0.7-0.3c0.1,0,0.1,0.2,0.3,0.3c0.1,0,0-0.3,0.2-0.3
			c0.3,0.4,0.5,0.8,0.8,1.2c0.4,0.7,0.9,1.4,1.2,2.1c-0.1,0.1-0.1,0.1-0.2,0.3c-2-0.5-4-0.9-6.5-0.8c-1.1,0-2.3,0.2-3.3,0.4
			c-0.5,0.1-1,0.2-1.4,0.4c-0.3,0.1-1.1,0.4-1.1,0.8c0,0.3,0.8,0.7,1.1,0.8c0.8,0.3,1.9,0.6,2.9,0.7c1.1,0.1,2.3,0.1,3.5-0.1
			c1.1-0.1,2-0.4,2.8-0.8c0.4-0.2,0.8-0.4,1.2-0.6c0.4-0.2,0.7-0.5,1.1-0.7c1.8,2.6,3.9,5.1,6.1,7.4c1.6,1.7,3.4,3.4,5.2,4.9
			c0.5,0.4,0.9,0.8,1.5,1.1c0.2,0.1,0.4,0.3,0.6,0.1c-0.1-0.1-0.1-0.2-0.1-0.4c-1.2-1-2.5-1.9-3.7-2.9c-1.2-1-2.3-2.1-3.4-3.2
			c-1-1.1-2.2-2.2-3.2-3.4c-0.5-0.6-0.9-1.3-1.4-1.9c-0.5-0.6-1-1.2-1.4-1.9c2-0.6,3.6-1.8,4.9-3.2c0.9-1.1,1.8-2.2,2.3-3.7
			c0.2-0.5,0.4-1.1,0.4-1.6c0-0.3,0-0.6-0.2-0.8c-0.1,0-0.3,0-0.4,0c-0.4,0.1-0.9,0.5-1.3,0.7c-0.4,0.3-0.8,0.7-1.1,1
			c-0.7,0.7-1.4,1.4-1.9,2.2c-1.2,1.6-2.1,3.4-2.8,5.3c-0.1-0.1-0.2-0.2-0.3-0.4c-0.5-1-1.1-2-1.6-3c0.2-0.1,0.1-0.2,0-0.5
			c0.4-0.3,0.9-0.5,1.3-0.7c0.4-0.2,0.8-0.6,1.2-0.9c0.8-0.6,1.4-1.3,2-2.1c1.2-1.6,2.2-3.4,2.4-5.8c0.1-0.8,0-1.5-0.7-1.2
			c-0.4,0.2-0.8,0.6-1.2,0.9c-0.4,0.4-0.7,0.7-1,1.1c-0.7,0.8-1.2,1.6-1.7,2.5c-1,1.9-1.8,3.9-2.3,6.2c-0.2,0-0.2-0.1-0.3-0.2
			c0,0.1,0.1,0.2-0.1,0.2c-0.1,0-0.1-0.2-0.1-0.3c-0.5-0.6-0.9-1.3-1.3-2c-0.2-0.3-0.4-0.7-0.6-1c-0.2-0.4-0.4-0.7-0.4-1.2
			c0.1-0.1,0.3,0.1,0.4,0c0.1-0.2-0.1-0.2-0.1-0.3c0.4-0.3,0.9-0.5,1.3-0.7c0.4-0.3,0.8-0.6,1.2-0.9c0.7-0.6,1.4-1.3,2-2.1
			c1.2-1.5,2.2-3.4,2.4-5.8c0-0.5,0-1.1-0.3-1.3c-0.1,0-0.3,0-0.4,0.1c-0.4,0.2-0.9,0.6-1.2,0.9c-0.4,0.3-0.7,0.8-1,1.1
			c-1.3,1.6-2.3,3.3-3.1,5.4c-0.3,0.8-0.6,1.6-0.8,2.4c-0.1,0.3,0,0.6-0.2,0.9c-0.1,0-0.2-0.1-0.3-0.2c0.1,0.5-0.2,0.2-0.4,0
			c-0.3-0.4-0.5-0.8-0.7-1.2c-0.3-0.6-0.8-1.1-0.9-1.7c0-0.1,0.3,0,0.4-0.1c0.1-0.2,0-0.3,0-0.5c0-0.1,0.4-0.4,0.5-0.4
			c0.6-0.5,1-0.9,1.5-1.4c0.6-0.7,1.1-1.4,1.6-2.3c0.9-1.7,1.6-3.6,1.4-6.3c0-0.6-0.2-1.6-0.9-1.2c-0.3,0.2-0.7,0.7-1,1
			c-0.3,0.4-0.5,0.8-0.8,1.2c-0.5,0.9-0.9,1.8-1.2,2.7c-0.7,2-1.1,4.3-1.1,6.7c-0.2,0-0.2-0.1-0.3-0.1c0.1,0.2,0,0.2-0.2,0.3
			c-0.2-0.2-0.3-0.5-0.3-0.7c0-0.1,0.2,0,0.2-0.2c-0.1,0-0.2,0.2-0.4,0.1C43.1,95.9,43,94.4,42.8,93z M43.2,97
			c0.2,0,0.3-0.1,0.4,0.1c0.1,0.1,0,0.3-0.1,0.4c0,0.1,0.1,0.2,0.1,0.3c0.1-0.2,0.3-0.1,0.4-0.1c0-1.3,0.2-2.7,0.4-3.9
			c0.4-2.2,1.1-3.9,2.1-5.7c0.2-0.4,0.5-0.8,0.8-1.1c0.3-0.3,0.6-0.8,1-1c0.8-0.4,1.1,0.6,1.2,1.3c0.2,2.7-0.5,4.6-1.4,6.4
			c-0.5,1-1,1.7-1.5,2.4c-0.5,0.5-0.9,1-1.5,1.5c-0.2,0.1-0.5,0.3-0.5,0.4c-0.1,0.2,0.1,0.7-0.4,0.6c0.2,0.5,0.5,0.9,0.8,1.4
			c0.3,0.4,0.4,1,0.8,1.3c0.1-0.2,0.3-0.1,0.4-0.1c0.1-1.2,0.6-2.2,0.9-3.2c0.4-1,0.8-1.9,1.3-2.9c0.5-0.9,1.1-1.6,1.7-2.5
			c0.5-0.6,1-1.1,1.6-1.6c0.3-0.2,1.1-0.8,1.5-0.3c0.2,0.3,0.2,0.9,0.2,1.4C53,94.7,52,96.4,50.8,98c-1.1,1.6-2.6,2.9-4.4,3.7
			c0,0.1,0,0.3-0.1,0.4c-0.1,0.1-0.2,0-0.3,0c0.2,0.8,0.8,1.4,1.1,2.1c0.2,0.3,0.4,0.7,0.6,1c0.2,0.3,0.4,0.7,0.7,0.9
			c0.2-1.2,0.6-2.2,1-3.3c0.7-2.1,1.8-3.8,3.1-5.4c0.3-0.4,0.6-0.8,1-1.1c0.4-0.3,0.8-0.7,1.2-0.9c0.9-0.4,1.1,0.5,1,1.4
			c-0.2,2.4-1.2,4.2-2.4,5.8c-1.2,1.7-2.7,2.9-4.5,3.7c0,0.1,0.1,0.3-0.1,0.4c0.6,0.9,1.1,2,1.6,2.9c0.8-1.8,1.7-3.6,2.8-5.2
			c0.6-0.8,1.2-1.4,1.9-2.1c0.3-0.3,0.7-0.7,1.1-0.9c0.6-0.4,1-0.7,1.8-0.8c0.6,0.4,0.2,1.7,0,2.3c-0.5,1.6-1.4,2.8-2.3,4
			c-1.3,1.6-3,2.7-4.9,3.4c0.4,0.7,1,1.2,1.4,1.8c0.4,0.6,0.9,1.3,1.4,1.8c0.5,0.6,1,1.2,1.5,1.7c2.1,2.2,4.3,4.4,6.8,6.2
			c0.3,0.2,0.6,0.4,0.9,0.7c0.3,0.2,0.8,0.5,0.9,0.7c0,0.1,0,0.2,0.1,0.2c0.1,0.2,0.1,0.4-0.2,0.5c-0.3,0.1-0.9-0.4-1.1-0.6
			c-2.2-1.7-4.3-3.5-6.2-5.6c-2.2-2.4-4.3-4.7-6-7.4c-0.4,0.3-0.9,0.5-1.3,0.8c-0.4,0.2-0.9,0.4-1.5,0.6c-1.9,0.7-5,1-7.3,0.4
			c-0.5-0.1-1.1-0.3-1.6-0.5c-0.6-0.2-1.6-0.8-0.8-1.4c0.3-0.3,0.8-0.4,1.2-0.6c0.5-0.2,1-0.3,1.5-0.4c1.1-0.2,2.2-0.3,3.3-0.3
			c1.8,0,4.4,0.3,6.1,0.8c0-0.2-0.1-0.3-0.2-0.4c-0.1-0.1-0.1-0.3-0.2-0.4c-0.1-0.3-0.3-0.5-0.5-0.7c-0.3-0.5-0.6-1-0.9-1.5
			c-0.1,0-0.1,0.1-0.3,0.1c-0.1,0-0.1-0.2-0.3-0.2c-0.9,0.6-2,0.9-3.2,1.1c-2.3,0.5-5.6,0.3-7.6-0.5c-0.5-0.2-1-0.4-1.5-0.7
			c-0.4-0.2-1.1-0.6-1-1.1c0-0.2,0.2-0.3,0.3-0.4c0.4-0.2,0.9-0.3,1.5-0.5c0.5-0.1,1.1-0.2,1.7-0.2c2.6-0.1,4.8,0.2,6.8,0.8
			c1,0.3,2,0.5,2.8,1c0-0.2,0-0.2,0.1-0.3c-0.8-1.2-1.6-2.5-2.3-3.7c-0.1,0-0.1,0.1-0.2,0.1c-0.1-0.1-0.1-0.2-0.3-0.3
			c-0.9,0.5-2,0.9-3.2,1.1c-2.4,0.5-5.6,0.2-7.6-0.5c-0.5-0.2-1-0.4-1.5-0.7c-0.4-0.2-1.1-0.6-1.1-1.1c0-0.2,0.2-0.4,0.4-0.5
			c0.4-0.2,0.9-0.4,1.4-0.5c0.5-0.1,1.2-0.1,1.7-0.2c2.5-0.1,4.8,0.2,6.8,0.8c1,0.3,2,0.5,2.8,1c0.1-0.3-0.2-0.5-0.3-0.7
			c-0.4-0.7-0.9-1.4-1.2-2.2c-0.2,0.1-0.4-0.1-0.5-0.2c-1.1,0.4-2.4,0.5-3.8,0.6c-1.4,0-2.7-0.3-3.8-0.6c-1.7-0.4-3.2-1.1-4.5-2.1
			c-0.5-0.4-1.4-1.3-0.4-1.7c0.4-0.2,1.3-0.2,1.8-0.2c0.7,0,1.3,0.1,1.8,0.2c3,0.4,5.3,1.4,7.6,2.6c0.3,0.2,0.6,0.3,1,0.6
			c0,0,0.3,0.2,0.3,0.2c0,0,0.1-0.4,0.3-0.2c-0.1-0.7-0.5-0.9-0.9-1.3c-0.7-0.6-1.3-1.4-1.9-2.1c-0.7-1-1.4-2.1-1.9-3.4
			c-0.7-1.9-1.4-4-1.2-6.7c0-0.4,0.1-0.8,0.2-1.2c0.1-0.4,0.3-1,0.8-1c0.5,0.1,1,0.7,1.3,1.1c0.4,0.5,0.7,0.9,1,1.4
			c1.1,2.2,1.9,4.4,2.4,7.2c0.1,0.7,0.2,1.4,0.3,2.1C43.2,95.2,43.4,96.2,43.2,97"/>
	</g>
</g>
<path class="st1" d="M38.3,84.3C38.4,84.3,38.4,84.3,38.3,84.3c0.6,2,1.1,3.9,1.7,5.8c0.3,0.9,0.7,1.8,1,2.7c0.2,0.7,0.5,1.4,0.8,2
	c0.1,0.2,0.3,0.4,0.2,0.6c-0.2,0-0.3-0.3-0.4-0.5c-0.3-0.6-0.5-1.3-0.8-2c-0.3-0.9-0.7-1.8-1-2.7c-0.3-0.9-0.6-1.8-0.9-2.8
	c-0.1-0.5-0.2-1-0.4-1.5C38.5,85.4,38.3,84.8,38.3,84.3C38.3,84.3,38.3,84.3,38.3,84.3"/>
<path class="st1" d="M48.4,87.5C48.4,87.5,48.5,87.5,48.4,87.5c0,0.5-0.1,0.9-0.3,1.3c-0.4,1.2-0.7,2.4-1.2,3.5
	c-0.3,0.7-0.6,1.5-0.9,2.2c-0.2,0.6-0.4,1.1-0.7,1.6c-0.1,0.2-0.1,0.4-0.3,0.4c-0.1-0.2,0.1-0.4,0.2-0.5c0.3-0.5,0.5-1.1,0.7-1.6
	c0.3-0.7,0.6-1.5,0.9-2.2C47.4,90.7,47.9,89.1,48.4,87.5L48.4,87.5"/>
<path class="st1" d="M52.2,92.2C52.3,92.2,52.3,92.2,52.2,92.2c-0.2,0.8-0.7,1.6-1.1,2.3c-0.2,0.4-0.4,0.7-0.6,1.1c-0.6,1-1.3,2-2,3
	c-0.4,0.6-0.8,1.2-1.2,1.7c-0.1,0.1-0.1,0.2-0.2,0.1c0-0.2,0.2-0.3,0.3-0.5c0.4-0.4,0.7-1,1-1.5c0.8-1.3,1.8-2.6,2.5-4.1
	c0.2-0.4,0.4-0.7,0.6-1.1C51.9,92.9,52.1,92.6,52.2,92.2"/>
<path class="st1" d="M31.4,96.1c1.6,0.4,3.1,1,4.8,1.4c1.2,0.3,2.5,0.6,3.8,0.8c0.2,0,0.4,0.1,0.6,0.1c0.2,0,0.4,0,0.6,0.2
	c-0.1,0.1-0.2,0.1-0.3,0c-0.8-0.1-1.5-0.3-2.2-0.4c-1.7-0.4-3.3-0.7-4.9-1.2c-0.3-0.1-0.8-0.3-1.2-0.4
	C32.1,96.4,31.6,96.4,31.4,96.1"/>
<path class="st1" d="M54.8,97C54.8,97,54.9,97,54.8,97c-0.6,1.6-1.4,3-2.3,4.4c-0.4,0.7-0.9,1.3-1.3,2c-0.3,0.5-0.6,1-1,1.5
	c-0.1,0.1-0.2,0.3-0.4,0.4c0-0.2,0.2-0.4,0.3-0.5c0.4-0.5,0.7-1,1-1.5c0.9-1.3,1.8-2.6,2.6-4.1c0.2-0.4,0.4-0.7,0.6-1.1
	C54.4,97.7,54.6,97.4,54.8,97"/>
<path class="st1" d="M33.3,101.7c1.5,0.2,3.3,0.4,5,0.5c1.3,0.1,2.6,0.1,3.9,0.2c0.2,0,0.4,0,0.7,0c0.2,0,0.4-0.1,0.5,0.1
	c-0.1,0.2-0.4,0.1-0.6,0.1c-0.6,0-1.3,0-2-0.1c-1.6-0.1-3.3-0.1-5-0.4c-0.4-0.1-0.8-0.1-1.2-0.2C34.1,101.9,33.5,101.9,33.3,101.7"
	/>
<g>
	<defs>
		<rect id="SVGID_00000065043022043487754240000006910587604366706060_" x="50.6" y="101.5" width="7.3" height="9.3"/>
	</defs>
	<clipPath id="SVGID_00000183931116806379461740000003767626886163183804_">
		<use xlink:href="#SVGID_00000065043022043487754240000006910587604366706060_"  style="overflow:visible;"/>
	</clipPath>
	<g style="clip-path:url(#SVGID_00000183931116806379461740000003767626886163183804_);">
		<path class="st1" d="M57.5,102.3C57.5,102.3,57.5,102.3,57.5,102.3c-0.3,0.7-0.8,1.4-1.2,2c-0.9,1.3-1.9,2.4-2.9,3.6
			c-0.4,0.4-0.7,0.9-1.1,1.3c-0.1,0.1-0.3,0.3-0.5,0.3c0-0.2,0.2-0.3,0.3-0.4c0.4-0.4,0.8-0.9,1.1-1.3c1-1.2,2-2.3,2.9-3.6
			c0.2-0.3,0.4-0.6,0.7-1C57,102.9,57.3,102.6,57.5,102.3"/>
	</g>
</g>
<path class="st1" d="M36,106.4c1.4,0.2,3.1,0.4,4.7,0.5c0.8,0,1.6,0.1,2.4,0.1c0.8,0,1.6,0.1,2.3,0.1c0.3,0,0.5-0.1,0.7,0
	c-0.1,0.2-0.4,0.1-0.6,0.1c-0.7,0-1.3,0-2-0.1c-1.7-0.1-3.3-0.1-5-0.3c-0.4-0.1-0.8-0.1-1.2-0.2C36.8,106.6,36.2,106.6,36,106.4"/>
<path class="st1" d="M48.7,111.1c-0.1,0.1-0.3,0.1-0.5,0.2c-0.5,0.1-1.1,0.1-1.7,0.1c-1.4,0.1-3,0.3-4.7,0.3c-0.8,0-1.6,0-2.4,0
	c-0.1,0-0.4,0-0.4-0.1c2,0.1,4,0,5.9-0.2c0.9-0.1,1.7-0.1,2.6-0.2c0.3,0,0.6-0.1,0.8-0.1C48.6,111.1,48.7,111,48.7,111.1"/>
<g>
	<defs>
		<rect id="SVGID_00000129184146906985158970000002499461230471235240_" x="206.2" y="75.6" width="32" height="49"/>
	</defs>
	<clipPath id="SVGID_00000108282160725664930400000007956281054414450560_">
		<use xlink:href="#SVGID_00000129184146906985158970000002499461230471235240_"  style="overflow:visible;"/>
	</clipPath>
	<g style="clip-path:url(#SVGID_00000108282160725664930400000007956281054414450560_);">
		<path class="st1" d="M223.6,87.8c0.4-3.2,1.4-6,2.5-8.5c0.3-0.6,0.6-1.2,1-1.8c0.4-0.5,0.8-1.2,1.3-1.5c0.1-0.1,0.3-0.2,0.5-0.2
			c0.5-0.1,0.8,1.4,0.8,1.8c0.2,1.8,0.1,3.5-0.3,5c-0.3,1.4-0.8,2.8-1.3,4.1c-0.6,1.3-1.3,2.4-2,3.4c-0.6,0.8-1.1,1.5-1.9,2.2
			c-0.2,0.2-0.6,0.4-0.7,0.6c-0.1,0.2-0.2,0.4-0.2,0.5c-0.1,0.2-0.2,0.4-0.2,0.6c0.1,0.1,0.1,0.2,0.2,0.3c0.1,0,0.1-0.2,0.2-0.2
			c0,0.2,0,0.3,0.1,0.3c0.9-0.6,1.9-1.1,3-1.6c2.1-1,4.2-1.9,7-2.3c0.6-0.1,1.3-0.2,2.1-0.2c0.7,0,1.6,0,2.1,0.2
			c0.7,0.2,0.4,0.7,0,1.1c-0.6,0.7-1.4,1.2-2.2,1.6c-1.1,0.6-2.3,1.1-3.6,1.4c-2.3,0.6-5.2,0.8-7.5,0.2c-0.3-0.1-0.8-0.3-1-0.3
			c-0.1,0-0.1,0.3-0.3,0.3c-0.1,0-0.1-0.2-0.2-0.1c-0.5,0.8-0.9,1.7-1.4,2.5c-0.2,0.3-0.3,0.6-0.5,0.8c-0.1,0.1-0.3,0.2-0.3,0.4
			c0.1,0.2,0.2-0.2,0.3,0c-0.1,0.1,0,0.2,0,0.3c2.1-0.8,4.3-1.6,7-1.9c1.2-0.1,2.8-0.2,4-0.2c0.7,0,1.4,0,2,0.2
			c0.6,0.1,1.2,0.3,1.7,0.5c0.1,0.1,0.3,0.3,0.4,0.4c0,0.3-0.3,0.5-0.5,0.7c-0.7,0.5-1.6,0.9-2.4,1.2c-1.2,0.5-2.6,0.7-4.1,0.8
			c-2.8,0.2-5.4-0.3-7.2-1.2c-0.2-0.1-0.6-0.4-0.8-0.3c-0.2,0.1,0.1,0.2-0.2,0.3c-0.1-0.1,0-0.4-0.1-0.3c-0.8,1.3-1.5,2.6-2.3,3.8
			c-0.3,0.4-0.7,0.8-0.7,1.3c0.2,0,0.1-0.1,0.3-0.1c0,0.1-0.1,0.2,0,0.4c2.2-0.8,4.5-1.6,7.3-2c1.4-0.2,2.8-0.2,4.3-0.1
			c0.7,0,1.4,0.1,2,0.3c0.4,0.1,1.5,0.3,1.5,0.8c0,0.2-0.3,0.5-0.5,0.7c-0.7,0.5-1.6,0.9-2.4,1.2c-1.2,0.4-2.6,0.7-4.1,0.8
			c-1.5,0.1-3.2,0-4.4-0.3c-1-0.2-1.9-0.5-2.7-0.9c-0.3-0.1-0.6-0.4-0.8-0.4c-0.2,0-0.1,0.2-0.3,0.3c-0.2,0,0-0.3-0.2-0.3
			c-0.4,0.5-0.6,1-0.9,1.5c-0.5,0.8-1,1.6-1.4,2.5c0.1,0.1,0.2,0.2,0.2,0.3c2.3-0.6,4.6-1,7.4-1c1.2,0,2.6,0.2,3.8,0.4
			c0.6,0.1,1.1,0.2,1.7,0.5c0.4,0.2,1.2,0.5,1.3,0.9c0,0.4-1,0.8-1.2,0.9c-1,0.4-2.2,0.7-3.3,0.8c-1.3,0.1-2.6,0.1-4-0.1
			c-1.2-0.2-2.3-0.5-3.3-0.9c-0.5-0.2-1-0.4-1.4-0.7c-0.5-0.3-0.8-0.6-1.3-0.8c-2.1,3.1-4.5,5.9-7,8.7c-1.8,2-3.9,4-6,5.7
			c-0.5,0.4-1.1,0.9-1.7,1.3c-0.2,0.1-0.5,0.3-0.7,0.1c0.1-0.2,0.2-0.2,0.1-0.4c1.4-1.1,2.8-2.2,4.2-3.4c1.4-1.1,2.7-2.4,3.9-3.7
			c1.2-1.3,2.5-2.6,3.6-4c0.6-0.7,1-1.5,1.6-2.2c0.6-0.7,1.2-1.4,1.6-2.2c-2.3-0.8-4.1-2.1-5.6-3.8c-1.1-1.2-2.1-2.6-2.7-4.4
			c-0.2-0.6-0.4-1.2-0.5-1.9c0-0.4,0-0.7,0.2-0.9c0.2,0,0.3,0,0.5,0c0.5,0.1,1.1,0.5,1.5,0.8c0.5,0.3,0.9,0.8,1.3,1.1
			c0.8,0.8,1.6,1.6,2.2,2.5c1.3,1.9,2.4,4,3.3,6.2c0.1-0.1,0.2-0.3,0.3-0.4c0.6-1.2,1.2-2.3,1.9-3.5c-0.2-0.2-0.2-0.3-0.1-0.5
			c-0.5-0.3-1-0.5-1.5-0.8c-0.5-0.3-0.9-0.7-1.3-1c-0.9-0.7-1.6-1.5-2.3-2.5c-1.3-1.8-2.6-4-2.7-6.8c-0.1-0.9,0-1.7,0.8-1.4
			c0.5,0.2,1,0.7,1.4,1c0.5,0.4,0.8,0.9,1.1,1.3c0.8,1,1.4,1.9,2,2.9c1.2,2.2,2,4.5,2.6,7.2c0.2,0,0.2-0.2,0.3-0.2
			c0,0.1-0.1,0.3,0.1,0.3c0.1,0,0.1-0.2,0.1-0.4c0.6-0.7,1-1.5,1.5-2.3c0.2-0.4,0.5-0.8,0.7-1.2c0.2-0.4,0.5-0.9,0.5-1.4
			c-0.1-0.1-0.3,0.1-0.4,0c-0.1-0.2,0.2-0.2,0.1-0.3c-0.5-0.3-1-0.5-1.5-0.8c-0.5-0.3-0.9-0.7-1.4-1c-0.8-0.7-1.6-1.5-2.3-2.5
			c-1.3-1.8-2.5-4-2.7-6.7c0-0.6,0-1.3,0.3-1.5c0.2,0,0.3,0,0.5,0.1c0.5,0.2,1,0.7,1.4,1c0.5,0.4,0.8,0.9,1.1,1.3
			c1.5,1.9,2.7,3.9,3.5,6.3c0.3,0.9,0.7,1.9,0.9,2.8c0.1,0.3,0.1,0.7,0.2,1c0.1,0,0.2-0.2,0.3-0.2c-0.2,0.5,0.3,0.2,0.4,0
			c0.4-0.4,0.6-1,0.8-1.4c0.4-0.7,0.9-1.2,1-2c-0.1-0.1-0.4,0-0.4-0.1c-0.1-0.2,0-0.3,0-0.5c0-0.1-0.5-0.4-0.6-0.5
			c-0.7-0.5-1.2-1-1.7-1.7c-0.7-0.8-1.3-1.6-1.8-2.7c-1-2-1.8-4.2-1.6-7.4c0.1-0.7,0.3-1.9,1.1-1.4c0.4,0.2,0.8,0.8,1.1,1.2
			c0.4,0.5,0.6,1,0.9,1.4c0.5,1.1,1.1,2.1,1.4,3.2c0.8,2.4,1.2,5.1,1.3,7.8c0.2,0,0.2-0.1,0.4-0.1c-0.1,0.3,0,0.3,0.2,0.3
			c0.2-0.2,0.3-0.5,0.4-0.9c0-0.1-0.2-0.1-0.2-0.2c0.2,0,0.3,0.2,0.5,0.1C223.2,91.2,223.4,89.5,223.6,87.8z M223.1,92.5
			c-0.2,0-0.3-0.1-0.4,0.1c-0.1,0.2,0,0.4,0.1,0.5c0,0.1-0.1,0.2-0.1,0.3c-0.1-0.2-0.3-0.1-0.4-0.1c0-1.5-0.2-3.1-0.4-4.5
			c-0.5-2.5-1.3-4.6-2.4-6.6c-0.2-0.4-0.5-0.9-0.9-1.3c-0.3-0.4-0.7-0.9-1.1-1.1c-0.9-0.5-1.3,0.7-1.3,1.6c-0.2,3.2,0.6,5.4,1.6,7.5
			c0.6,1.2,1.1,2,1.8,2.8c0.5,0.6,1,1.2,1.7,1.7c0.2,0.2,0.5,0.3,0.6,0.5c0.1,0.2-0.1,0.8,0.5,0.7c-0.2,0.6-0.6,1.1-0.9,1.6
			c-0.3,0.5-0.5,1.1-0.9,1.6c-0.1-0.2-0.3-0.1-0.4-0.1c-0.2-1.4-0.7-2.6-1.1-3.8c-0.4-1.2-0.9-2.3-1.5-3.3c-0.6-1-1.2-1.9-2-2.9
			c-0.5-0.7-1.1-1.3-1.8-1.8c-0.3-0.3-1.2-1-1.7-0.4c-0.2,0.3-0.3,1-0.2,1.6c0.2,2.8,1.4,4.8,2.7,6.7c1.3,1.8,3,3.3,5.1,4.3
			c0.1,0.1,0,0.4,0.1,0.5c0.1,0.1,0.2,0.1,0.3,0.1c-0.3,0.9-0.9,1.6-1.3,2.5c-0.2,0.4-0.5,0.8-0.7,1.2c-0.2,0.4-0.4,0.8-0.8,1
			c-0.2-1.3-0.7-2.6-1.1-3.8c-0.9-2.4-2-4.4-3.5-6.3c-0.3-0.4-0.7-0.9-1.2-1.3c-0.4-0.4-0.9-0.8-1.4-1c-1-0.4-1.2,0.6-1.1,1.7
			c0.2,2.8,1.4,4.9,2.7,6.8c1.3,1.9,3.1,3.3,5.2,4.3c0,0.1-0.1,0.4,0.1,0.5c-0.7,1.1-1.2,2.3-1.9,3.4c-0.9-2.1-1.9-4.2-3.3-6.1
			c-0.7-0.9-1.4-1.6-2.2-2.5c-0.4-0.4-0.8-0.8-1.2-1.1c-0.6-0.4-1.1-0.9-2.1-0.9c-0.7,0.4-0.3,2,0,2.7c0.6,1.9,1.6,3.3,2.6,4.6
			c1.5,1.9,3.4,3.2,5.7,4c-0.5,0.8-1.1,1.4-1.6,2.2c-0.5,0.7-1,1.5-1.6,2.2c-0.6,0.7-1.2,1.3-1.8,2c-2.4,2.6-4.9,5.1-7.8,7.3
			c-0.3,0.2-0.7,0.5-1.1,0.8c-0.3,0.2-0.9,0.6-1,0.9c0,0.1,0,0.2-0.1,0.3c-0.1,0.2-0.1,0.5,0.2,0.5c0.4,0.1,1-0.4,1.3-0.6
			c2.6-2,4.9-4.1,7.1-6.5c2.5-2.8,4.9-5.5,6.9-8.6c0.5,0.3,1,0.6,1.5,0.9c0.5,0.3,1.1,0.5,1.7,0.7c2.2,0.8,5.8,1.2,8.4,0.5
			c0.6-0.2,1.2-0.3,1.8-0.6c0.7-0.3,1.8-0.9,1-1.6c-0.4-0.3-0.9-0.5-1.4-0.7c-0.5-0.2-1.1-0.3-1.7-0.4c-1.3-0.2-2.5-0.4-3.8-0.4
			c-2,0-5,0.4-7,0.9c0-0.2,0.1-0.3,0.2-0.5c0.1-0.2,0.1-0.3,0.2-0.5c0.2-0.3,0.4-0.6,0.5-0.9c0.3-0.6,0.7-1.2,1-1.8
			c0.1,0,0.1,0.1,0.3,0.1c0.1,0,0.2-0.2,0.3-0.2c1.1,0.7,2.3,1,3.7,1.3c2.7,0.6,6.4,0.3,8.7-0.6c0.5-0.2,1.1-0.5,1.7-0.8
			c0.4-0.2,1.2-0.7,1.2-1.3c0-0.2-0.3-0.4-0.4-0.5c-0.4-0.3-1.1-0.4-1.7-0.5c-0.6-0.2-1.3-0.2-1.9-0.2c-3-0.2-5.5,0.2-7.8,0.9
			c-1.2,0.3-2.3,0.6-3.3,1.1c0-0.2,0-0.3-0.2-0.3c0.9-1.4,1.8-2.9,2.6-4.4c0.1-0.1,0.1,0.1,0.2,0.1c0.1-0.1,0.2-0.2,0.3-0.3
			c1,0.6,2.3,1,3.6,1.3c2.7,0.6,6.4,0.3,8.7-0.6c0.5-0.2,1.1-0.5,1.7-0.8c0.4-0.2,1.2-0.7,1.2-1.2c0-0.3-0.3-0.4-0.4-0.5
			c-0.4-0.3-1.1-0.4-1.7-0.6c-0.6-0.1-1.3-0.2-2-0.2c-2.9-0.1-5.5,0.3-7.8,0.9c-1.2,0.3-2.3,0.6-3.3,1.1c-0.1-0.3,0.2-0.6,0.3-0.8
			c0.5-0.8,1-1.6,1.4-2.6c0.2,0.1,0.5-0.1,0.6-0.2c1.3,0.5,2.8,0.6,4.3,0.6c1.6,0,3.1-0.3,4.4-0.7c2-0.5,3.7-1.3,5.1-2.5
			c0.5-0.4,1.6-1.5,0.5-2c-0.5-0.2-1.4-0.2-2.1-0.2c-0.8,0-1.5,0.1-2.1,0.2c-3.5,0.4-6.1,1.7-8.7,3c-0.4,0.2-0.7,0.4-1.1,0.6
			c0,0-0.3,0.2-0.3,0.2c-0.1,0-0.1-0.4-0.4-0.2c0.1-0.8,0.5-1,1.1-1.5c0.8-0.8,1.5-1.6,2.1-2.5c0.8-1.1,1.6-2.5,2.2-4
			c0.8-2.2,1.6-4.7,1.4-7.9c0-0.5-0.1-0.9-0.2-1.4c-0.1-0.4-0.3-1.2-0.9-1.2c-0.6,0.1-1.1,0.8-1.5,1.3c-0.4,0.6-0.8,1.1-1.1,1.7
			c-1.2,2.5-2.2,5.1-2.7,8.4c-0.1,0.8-0.2,1.6-0.3,2.5C223.1,90.4,222.9,91.6,223.1,92.5"/>
	</g>
</g>
<path class="st1" d="M228.7,77.7C228.7,77.7,228.7,77.7,228.7,77.7c-0.7,2.3-1.2,4.6-2,6.8c-0.4,1.1-0.8,2.1-1.1,3.2
	c-0.3,0.8-0.5,1.6-0.9,2.4c-0.1,0.2-0.3,0.5-0.2,0.7c0.2,0,0.3-0.4,0.4-0.6c0.3-0.7,0.6-1.6,0.9-2.4c0.3-1,0.8-2.1,1.1-3.2
	c0.4-1,0.7-2.1,1-3.3c0.1-0.5,0.3-1.1,0.4-1.7C228.5,78.9,228.8,78.3,228.7,77.7C228.7,77.7,228.7,77.7,228.7,77.7"/>
<path class="st1" d="M217.2,81.4C217.1,81.4,217.1,81.4,217.2,81.4c-0.1,0.5,0.2,1,0.3,1.5c0.4,1.4,0.8,2.8,1.3,4.1
	c0.3,0.9,0.7,1.7,1,2.6c0.2,0.6,0.5,1.3,0.8,1.9c0.1,0.2,0.2,0.4,0.4,0.5c0.1-0.2-0.1-0.4-0.2-0.6c-0.3-0.6-0.5-1.2-0.8-1.9
	c-0.3-0.9-0.7-1.7-1-2.6C218.3,85.2,217.7,83.4,217.2,81.4L217.2,81.4"/>
<path class="st1" d="M212.8,86.9C212.7,86.9,212.7,86.9,212.8,86.9c0.3,1,0.8,1.8,1.2,2.7c0.2,0.4,0.4,0.8,0.7,1.3
	c0.7,1.2,1.5,2.3,2.2,3.5c0.4,0.7,0.9,1.4,1.4,2c0.1,0.1,0.1,0.3,0.2,0.2c0-0.3-0.2-0.4-0.3-0.6c-0.4-0.5-0.8-1.1-1.1-1.7
	c-1-1.6-2-3.1-2.9-4.8c-0.2-0.4-0.4-0.8-0.7-1.3C213.2,87.8,213,87.4,212.8,86.9"/>
<path class="st1" d="M236.7,91.5c-1.8,0.5-3.6,1.1-5.5,1.6c-1.4,0.3-2.9,0.7-4.3,1c-0.2,0.1-0.5,0.1-0.7,0.2c-0.2,0-0.5,0-0.7,0.2
	c0.1,0.1,0.3,0.1,0.3,0c0.9-0.1,1.7-0.3,2.6-0.5c1.9-0.5,3.8-0.8,5.6-1.4c0.4-0.1,0.9-0.3,1.3-0.4C235.8,91.9,236.4,91.8,236.7,91.5
	"/>
<path class="st1" d="M209.8,92.5C209.8,92.5,209.8,92.5,209.8,92.5c0.7,1.8,1.6,3.5,2.6,5.1c0.5,0.8,1,1.5,1.5,2.3
	c0.4,0.6,0.7,1.2,1.1,1.8c0.1,0.2,0.3,0.4,0.5,0.4c0-0.2-0.2-0.4-0.3-0.6c-0.4-0.5-0.8-1.1-1.1-1.7c-1-1.6-2-3.1-2.9-4.7
	c-0.2-0.4-0.4-0.9-0.6-1.3C210.3,93.3,210,92.9,209.8,92.5"/>
<path class="st1" d="M234.5,98c-1.7,0.2-3.8,0.5-5.7,0.6c-1.5,0.1-2.9,0.2-4.4,0.2c-0.3,0-0.5,0-0.8,0c-0.2,0-0.4-0.1-0.6,0.1
	c0.1,0.2,0.4,0.1,0.7,0.1c0.7,0,1.5,0,2.3-0.1c1.9-0.1,3.8-0.1,5.8-0.4c0.4-0.1,0.9-0.1,1.4-0.2C233.6,98.3,234.2,98.3,234.5,98"/>
<path class="st1" d="M206.8,98.7C206.7,98.7,206.7,98.7,206.8,98.7c0.3,0.9,0.9,1.6,1.4,2.4c1,1.5,2.2,2.8,3.4,4.2
	c0.4,0.5,0.8,1,1.3,1.5c0.1,0.1,0.3,0.4,0.5,0.4c0-0.3-0.2-0.4-0.4-0.5c-0.5-0.4-0.9-1-1.3-1.5c-1.1-1.4-2.3-2.7-3.4-4.2
	c-0.3-0.4-0.5-0.8-0.8-1.1C207.3,99.4,207,99.1,206.8,98.7"/>
<path class="st1" d="M231.4,103.5c-1.6,0.2-3.5,0.5-5.3,0.6c-0.9,0-1.8,0.1-2.7,0.1c-0.9,0-1.8,0.2-2.7,0.1c-0.3,0-0.6-0.1-0.8,0.1
	c0.1,0.2,0.4,0.1,0.7,0.1c0.8,0,1.5-0.1,2.3-0.1c1.9-0.1,3.8-0.1,5.8-0.4c0.4-0.1,0.9-0.1,1.4-0.2
	C230.5,103.8,231.1,103.8,231.4,103.5"/>
<path class="st1" d="M216.8,109c0.1,0.2,0.4,0.2,0.5,0.2c0.6,0.1,1.3,0.1,1.9,0.2c1.7,0.1,3.4,0.3,5.3,0.3c0.9,0,1.8,0,2.7,0
	c0.2,0,0.4,0,0.5-0.2c-2.2,0.1-4.5,0-6.8-0.2c-1-0.1-2-0.1-3-0.2c-0.3,0-0.7-0.1-1-0.1C216.9,108.9,216.9,108.9,216.8,109"/>
<g>
	<defs>
		<rect id="SVGID_00000118399264448373156950000013018956924345684900_" x="53.1" y="6.2" width="156" height="124"/>
	</defs>
	<clipPath id="SVGID_00000087398530067198089720000014460317937177906349_">
		<use xlink:href="#SVGID_00000118399264448373156950000013018956924345684900_"  style="overflow:visible;"/>
	</clipPath>
	<g style="clip-path:url(#SVGID_00000087398530067198089720000014460317937177906349_);">
		<path d="M209.9,70.8c0-0.1,0-0.1-0.1-0.2c-0.6-1.3-1.3-2.6-2-3.9c-0.9-1.5-1.7-3-2.6-4.5c-0.9-1.5-1.8-3-2.7-4.5
			c-0.9-1.5-1.9-3-2.8-4.4c-0.9-1.5-1.9-2.9-2.8-4.5c-0.9-1.5-1.8-3-2.8-4.5c-0.5-0.7-1-1.4-1.4-2.1c-0.5-0.7-0.9-1.5-1.4-2.3
			c-0.5-0.8-1-1.5-1.5-2.2c-0.5-0.7-0.9-1.5-1.4-2.3c-1-1.6-2-3.2-3.1-4.7c-0.9-1.3-1.7-2.9-3-4c0,0-0.1,0-0.1-0.1
			c0-0.1-0.1-0.1-0.2-0.1c-1.4-0.1-2.9-0.3-4.3-0.3c-1.4,0-2.8-0.1-4.1-0.2c-2.9-0.2-5.9-0.2-8.8-0.2c-6,0-11.9-0.2-17.9-0.1
			c-3.3,0.1-6.6,0-9.9,0c0-3.2,0.1-6.4,0.1-9.6c0-0.1-0.1-0.2-0.2-0.2c-3.3-0.3-6.6,0.2-10,0.2c0,0-0.1,0-0.1,0c0,0,0,0,0,0
			c-0.1,0-0.1,0.1-0.1,0.2c0,3.1,0.1,6.3,0.1,9.4c-1.5,0-3.1,0.1-4.6,0.1c-1.5,0-3,0-4.6,0c-1.5,0-3,0-4.6,0c-1.5,0-3,0.1-4.6,0.1
			c-1.6,0-3.2,0-4.8,0c-1.5,0-3-0.1-4.5,0c-2.8,0.2-5.7,0.1-8.5,0.1c-1.6,0-3.1,0-4.7,0.1c-1.2,0-2.5,0-3.6,0.3
			c-0.2,0-0.2,0.2-0.1,0.4c-0.1,0-0.2,0-0.2,0.1c-1.8,2.8-3.5,5.8-5.5,8.6c-1,1.4-1.9,2.9-2.8,4.3c-0.9,1.4-1.9,2.8-2.8,4.3
			c-1.9,2.9-3.7,5.8-5.6,8.7c-0.9,1.5-1.8,2.9-2.8,4.4c-1,1.4-1.9,2.9-2.8,4.4c-0.5,0.8-1.1,1.5-1.6,2.3c-0.5,0.8-1,1.7-1.5,2.5
			c-0.5,0.8-1.1,1.6-1.6,2.3c-0.6,0.8-1.1,1.7-1.6,2.6c0,0.1,0,0.1,0,0.2c-0.1,0.1,0,0.4,0.2,0.4c0.8,0,1.6-0.1,2.5-0.1
			c0.4,0,0.7,0,1.1,0c0,0,0,0,0,0.1c0,1.4,0.1,2.8,0,4.2c-0.1,0.8-0.1,1.6-0.1,2.4c0,0,0,0,0,0c0,0.8,0,1.6,0,2.4c0,0.4,0,0.8,0,1.2
			c-0.1,0.1-0.1,0.2,0,0.3c0,1.3,0,2.5,0,3.8c0,0.1,0,0.2,0,0.3c0,1.2,0,2.3,0,3.5c-0.1,0.1-0.1,0.3,0,0.3c0,0.3,0,0.6,0,1
			c0.1,1.8,0.1,3.5,0.1,5.3c-0.1,1.8,0,3.5,0,5.3c0,1,0,2,0,2.9c-0.2,0.1-0.2,0.4,0,0.5c0,1.3,0,2.6,0,3.9c-0.2,0.1-0.2,0.4,0,0.5
			c0,0.9,0,1.8,0,2.7c0,0.3,0,0.6,0,0.9c0,0,0,0.1,0,0.1c0,1.2,0.1,2.4,0.1,3.6c-0.1,0.1-0.1,0.3,0,0.4c0,0.3,0,0.5,0,0.8
			c0,0.9,0,1.8,0,2.7c0,0.9-0.1,1.8,0,2.7c0,0.3,0.5,0.3,0.5,0c0-0.7,0-1.3,0-2c6.7,0,13.4,0,20.1,0c6.8,0,13.6,0,20.4-0.1
			c1.9,0,3.7,0,5.6-0.1c1.7,0,3.3,0,5-0.1c0,0.9-0.1,1.8-0.1,2.7c-0.6,0-1.3,0.1-1.9,0.1c-1.3,0.1-2.5,0.3-3.8,0.1
			c-1.1-0.2-2.1-0.2-3.2,0c-1.3,0.2-2.6,0.3-3.9,0.3c-1.2,0.1-2.4-0.2-3.6-0.2c-1.2,0-2.4-0.1-3.6-0.2c-1.2-0.1-2.4-0.1-3.6,0
			c-1.2,0.1-2.5,0-3.7,0c-1.2,0-2.4,0.2-3.6,0.2c-1.2,0-2.5,0.2-3.7,0c-1.1-0.2-1.9-0.4-3-0.3c-0.6,0.1-1.3,0.3-1.9,0.3
			c-0.6,0-1.3,0-1.9,0c-1.2,0-2.5,0-3.7,0c-1.1,0-2.2-0.3-3.3-0.4c-0.9,0-1.9,0.2-2.8,0.2c-0.3,0-0.3,0.5,0,0.5
			c0.9,0,1.9-0.2,2.8-0.2c1.1,0,2.2,0.3,3.3,0.3c1.2,0,2.5,0,3.7,0c1.2,0,2.3,0,3.4-0.2c0.7-0.1,1.4-0.2,2.1-0.1
			c0.6,0.1,1.1,0.3,1.7,0.4c1.1,0.2,2.2,0,3.4,0c1.2,0,2.5-0.3,3.7-0.2c1.2,0,2.4,0.1,3.6,0c4.8-0.4,9.6,0.8,14.3,0.1
			c0.6-0.1,1.3-0.3,1.9-0.3c0.7,0,1.4,0.2,2.1,0.3c1.2,0.2,2.2-0.1,3.4-0.2c2.7-0.2,5.4-0.3,8,0.2c1.1,0.2,2.2,0,3.3-0.2
			c1.3-0.2,2.7-0.2,4-0.2c1.1,0,2.3,0.1,3.4,0c0,0,0,0.1,0,0.1c0,0.3,0.5,0.3,0.5,0c0-0.1,0-0.1,0-0.2c1.3-0.1,2.5-0.1,3.7-0.1
			c1.3,0,2.5,0.3,3.8,0.3c1.3,0,2.6,0.1,4,0c1.3-0.1,2.6-0.1,4,0c0.5,0,1,0.1,1.6,0c0.6-0.1,1.1-0.4,1.7-0.5
			c1.3-0.2,2.4,0.6,3.6,0.5c1.3,0,2.5-0.5,3.8-0.3c1.2,0.2,2.3,0.2,3.5,0.1c1.2-0.1,2.5-0.2,3.7-0.3c1.2-0.1,2.4,0.4,3.6,0.3
			c0.5,0,1-0.1,1.5-0.2c0.8-0.1,1.5-0.1,2.3-0.2c2.6-0.2,5.3,0,7.9,0c1.3,0,2.6,0,4,0.1c0.6,0,1.3,0.1,1.9,0c0.6,0,1.2-0.2,1.8-0.3
			c0.7-0.1,1.3-0.2,2,0c0.5,0.1,1,0.3,1.5,0.3c1.2,0.1,2.4,0,3.6,0c1.2-0.1,2.4-0.3,3.6-0.2c1.2,0.1,2.4,0.1,3.6,0.1
			c1.2,0,2.5-0.1,3.7-0.1c1.1-0.1,2.2,0.2,3.3,0.3c0.9,0,1.8-0.3,2.7-0.4c0,0.3,0.5,0.2,0.5-0.1c0,0,0,0,0,0c0.1-0.1,0.1-0.2,0-0.3
			c0.1-0.7,0.2-1.4,0.2-2.1c0.1-0.8,0-1.7,0-2.5c0-0.4,0-0.9,0-1.3c0.1-0.1,0.1-0.3,0-0.4c0-1.1,0.1-2.3,0.2-3.4
			c0.1-0.8,0.2-1.7,0.1-2.5c0-0.5-0.1-1.1-0.1-1.6c0.1-0.1,0.1-0.3,0-0.3c0-0.2,0-0.4,0-0.6c0-0.9,0.2-1.8,0.2-2.6
			c0-0.9,0-1.8,0-2.7c0.1-3.5,0.2-7.1,0.2-10.6c0-1.8,0-3.6,0-5.4c0.1-1.8,0.2-3.5,0.1-5.3c-0.1-3.6-0.1-7.2-0.3-10.9
			c0.7,0,1.3,0,2,0C209.6,71.3,209.9,71.1,209.9,70.8z M145.8,26.4c1.5,0,3,0,4.4-0.1c1.5,0,2.9,0,4.4,0c6,0.1,11.9,0.1,17.9,0.3
			c1.6,0.1,3.2,0.3,4.7,0.3c1.5,0,3.1,0.2,4.6,0.3c0,0,0,0,0,0.1c1.2,1,1.9,2.5,2.8,3.7c0.9,1.3,1.8,2.7,2.7,4
			c0.9,1.4,1.8,2.9,2.8,4.3c1,1.4,1.8,3,2.8,4.5c1,1.4,1.9,2.9,2.8,4.4c0.9,1.5,1.8,2.9,2.8,4.4c1,1.5,1.9,3,2.8,4.5
			c1,1.4,1.8,3,2.7,4.5c1,1.7,1.9,3.4,3,5c0.8,1.3,1.6,2.7,2.2,4.1c-0.6,0-1.2,0-1.8,0c-0.1-0.2-0.4-0.2-0.4,0c-0.8,0-1.5,0-2.2,0.1
			c-1.7,0.1-3.4,0-5.2,0c-1.8,0-3.5,0.1-5.3,0.1c-0.8,0-1.7-0.1-2.5-0.1c-0.9,0-1.9,0.1-2.8,0.1c-1.8,0-3.7,0-5.5,0
			c-1.8,0-3.7-0.1-5.5,0c-1.8,0.1-3.7,0-5.5,0c-1.8,0-3.5,0.1-5.3,0.2c-1,0-1.9,0.1-2.9,0.1c-1,0-1.9-0.1-2.9-0.1
			c-1,0-1.9,0.1-2.9,0.1c-0.9,0-1.9,0-2.8,0c-0.1,0-0.1,0-0.2,0.1c-0.5-1.1-0.9-2.3-1.5-3.4c-0.6-1.2-1.1-2.4-1.7-3.6
			c-0.6-1.3-1.2-2.5-1.8-3.7c-0.6-1.2-1.3-2.3-1.9-3.6c-0.6-1.2-1.2-2.4-1.8-3.5c-0.7-1.2-1.1-2.5-1.7-3.7c-1.3-2.4-2.6-4.8-3.9-7.2
			c-1.4-2.6-2.7-5.2-4.2-7.7c-0.1-2.8-0.1-5.7-0.1-8.5C139.9,26.3,142.9,26.4,145.8,26.4z M156.2,117.1c1.4,0.1,2.9,0.2,4.3,0.1
			c1.6,0,3.1,0.1,4.7,0.1c1.6,0,3.2,0,4.7,0c1.6,0,3.3,0,4.9,0c3.4,0,6.8,0,10.2,0.1c3.4,0,6.8,0.1,10.2,0c3.7-0.1,7.5,0,11.2,0
			c0,0.2,0,0.3,0,0.5c0,0.9,0.1,1.9,0,2.8c0,0.1,0,0.1,0,0.2c-3.4,0-6.8,0.1-10.1,0.1c-3.4,0-6.8,0-10.2-0.1c-3.4,0-6.8,0-10.3,0
			c-3.2,0-6.5-0.1-9.7,0c-3.4,0-6.9-0.1-10.3-0.3c-0.1-0.8-0.1-1.5-0.2-2.3c-0.1-1.7,0-3.4-0.1-5.1c0-0.1,0-0.1,0-0.2
			c3.2,0,6.5-0.1,9.7,0c3.4,0.1,6.7,0.1,10.1,0.1c6.7,0.1,13.3,0.1,20,0.3c3.7,0.1,7.4,0.1,11.2,0.1c-0.1,0.6-0.1,1.1-0.1,1.7
			c0,0.6,0,1.2,0,1.8c-3.3,0-6.6-0.2-9.9,0c-3.4,0.1-6.8,0-10.2,0c-1.7,0-3.4,0-5.1,0c-1.7,0-3.4-0.1-5.2-0.1c-3.2,0-6.5-0.1-9.8,0
			c-1.8,0-3.5-0.1-5.3-0.1c-1.7,0-3.3-0.1-4.9-0.1C155.9,116.6,155.9,117.1,156.2,117.1z M206.8,109.6c0,0.1,0,0.2,0,0.3
			c0.1,0.8,0.1,1.6,0.1,2.5c0,0.2,0,0.5-0.1,0.7c-3.3,0-6.6,0-9.9-0.1c-1.7,0-3.4-0.1-5-0.1c-1.7,0-3.4,0-5,0
			c-3.3-0.1-6.7-0.2-10-0.2c-3.3,0-6.7-0.1-10-0.1c-1.9,0-3.7-0.1-5.6-0.1c-1.8,0-3.6,0.1-5.5,0.1c0-1.1,0-2.3,0-3.4
			c6.2,0,12.4,0.1,18.6,0.2c3.5,0.1,6.9-0.1,10.4,0c3.5,0.1,7,0.1,10.5,0.1C199.1,109.5,203,109.5,206.8,109.6z M196.6,108.9
			c-1.7,0-3.5,0-5.2,0c-1.8,0-3.5,0.1-5.3,0c-3.5-0.1-6.9-0.1-10.4-0.1c-3.5,0-7-0.1-10.5-0.1c-3.2,0-6.3-0.1-9.5-0.1
			c0-0.2,0-0.3,0-0.5c0-0.9,0-1.7,0-2.6c1.3,0,2.6,0,4,0c1.6,0,3.2-0.1,4.9-0.1c3.2,0,6.4,0.1,9.7,0.1c3.4,0,6.8-0.1,10.3,0
			c3.5,0.1,6.9-0.1,10.4,0c3.9,0,7.8,0,11.7,0c0.3,0,0.3-0.5,0-0.5c-6.9,0-13.8,0.1-20.7,0.1c-1.7,0-3.5-0.1-5.2,0
			c-1.7,0-3.4,0-5.1,0c-3.3,0-6.5,0-9.8,0c-1.8,0-3.6,0.1-5.4,0.1c-1.5,0-3.1,0-4.6,0c0-0.7,0-1.4,0-2.1c0-0.5,0-1,0-1.5
			c3.2-0.1,6.5-0.1,9.7-0.1c3.4,0,6.7,0,10.1,0c6.7,0,13.3,0.2,20,0.2c1,0,1.9,0,2.9,0c0.9,0,1.8,0.1,2.8,0.1c1.9,0,3.8,0,5.7,0
			c0.1,0,0.1,0,0.1,0c0,0.1,0,0.2,0,0.3c0,1.8,0,3.6-0.1,5.4c-0.1,0.6-0.1,1.2-0.1,1.8C203.4,109.1,200,109,196.6,108.9z M170.7,95
			c-1.3,0-2.7-0.1-4-0.1c-0.2,0-0.4,0-0.6,0c0,0-0.2,0-0.3,0c0,0,0,0,0,0c0.1-0.2,0-0.5,0-0.8c0,0,0-0.1,0-0.1c0,0,0,0,0,0
			c0-0.7,0-1.4,0-2.2c0.9-0.1,1.7-0.2,2.6-0.2c1,0,2.1,0,3.1-0.1c0,1.2-0.1,2.3-0.1,3.5C171.1,95,170.9,95,170.7,95z M190.5,84.8
			c0.1,2.1,0.1,4.1,0.2,6.2c-2.1,0-4.3,0-6.4,0c-0.7,0-1.3,0-2,0c0-2,0-4.1,0.1-6.1c0.6,0,1.2,0,1.8,0
			C186.2,84.7,188.3,84.8,190.5,84.8C190.4,84.8,190.4,84.8,190.5,84.8z M181.7,90.9c-1.2,0-2.3,0-3.5,0.1c-2,0.2-4,0.1-6,0.1
			c-0.1,0-0.2,0-0.3,0c0.1-2,0.1-4.1,0.2-6.1c0,0,0,0,0,0c1.8,0,3.6-0.1,5.4-0.2c1.4,0,2.8,0,4.2,0
			C181.7,86.8,181.7,88.8,181.7,90.9z M171.6,84.9c-0.1,2-0.1,4.1-0.2,6.1c-0.9,0-1.8,0-2.6,0.1c-1,0-2.1,0.2-3.1,0.2
			c0-0.4,0-0.8,0-1.2c0-0.1,0-0.1,0-0.2c0-0.2,0-0.3,0-0.5c0.1-1,0.1-2,0.2-3c0,0,0-0.1,0-0.2c0-0.4,0.1-0.8,0.1-1.2
			c1.7-0.1,3.4-0.1,5.2-0.2C171.4,84.9,171.5,84.9,171.6,84.9z M165.3,89.3c0,0.2,0,0.4,0,0.5c-3.2,0-6.3,0-9.5,0c0-0.8,0-1.5,0-2.3
			c0-0.3,0-0.6,0-0.9c3.2,0,6.4,0,9.6,0C165.4,87.5,165.4,88.4,165.3,89.3z M155.7,92.6c0-0.8,0.1-1.6,0.1-2.4c3.2,0,6.3,0.1,9.5,0
			c0,1.1,0,2.3,0,3.4c0,0,0,0,0,0.1c-3.2,0-6.4-0.1-9.6-0.1C155.7,93.3,155.7,93,155.7,92.6z M171.9,91.5c1.9,0,3.7,0.1,5.6-0.1
			c1-0.1,1.9-0.2,2.9-0.1c0.5,0,0.9,0,1.4,0c0,1.2,0,2.5,0,3.8c-0.8,0-1.5,0-2.3,0c-1.5,0-2.9,0-4.4-0.1c-1.1,0-2.2,0-3.3,0
			C171.9,93.9,171.9,92.7,171.9,91.5z M182.2,91.4c0.4,0,0.8,0,1.2,0c2,0,4.1,0.1,6.1,0c0.4,0,0.8,0,1.1,0c0,1.2,0.1,2.3,0.1,3.5
			c0,0.1,0.1,0.2,0.1,0.2c-0.9,0-1.7-0.1-2.6-0.1c-2,0-4,0.1-6,0.1C182.3,93.9,182.2,92.6,182.2,91.4z M191.2,91.4
			c0.6,0,1.2,0,1.8,0c1.2,0,2.3,0,3.5,0c0.3,0,0.3-0.5,0-0.5c-1.8,0-3.5,0-5.3,0c-0.1-2.1-0.1-4.1-0.2-6.2c0.9,0,1.9,0.1,2.8,0.2
			c0.9,0.1,1.9,0.2,2.8,0.3c0,2.9,0.2,5.8,0.2,8.8c0,0,0,0,0,0c0,0.4,0,0.7,0,1.1c-1.4,0-2.8,0-4.1,0c-0.5,0-1.1,0-1.6,0
			c0.1,0,0.1-0.1,0.1-0.2C191.2,93.7,191.2,92.6,191.2,91.4z M197.1,86.6c3.3,0,6.7,0,10,0c0.1,0,0.1,0,0.2-0.1c0,1.1,0,2.3-0.1,3.4
			c0,0-0.1,0-0.1,0c-3.3,0-6.6-0.1-9.9-0.1C197.1,88.7,197.1,87.7,197.1,86.6z M207.3,85.9c0,0.1,0,0.2,0,0.3c0,0-0.1-0.1-0.2-0.1
			c-3.3,0-6.7,0-10,0c0-0.3,0-0.6,0-0.9c0.1-0.1,0.1-0.2,0-0.3c-0.1-0.1-0.2-0.2-0.3-0.1c-0.9-0.1-1.7-0.2-2.6-0.3
			c-1-0.1-1.9-0.2-2.9-0.2c-1,0-2.1,0.1-3.1,0c-1.1,0-2.2-0.1-3.3-0.1c-4.3,0-8.5,0-12.8,0.2c-2.1,0.1-4.1,0-6.2,0.2
			c-0.1,0-0.2,0.1-0.2,0.2c0,0.4-0.1,0.8-0.1,1.2c-3.2,0-6.4,0-9.7,0c0-1.2,0-2.5,0-3.7c0-0.2,0-0.4,0-0.5c1.1,0,2.2,0,3.3,0
			c1.6,0,3.2,0,4.9,0c3.5,0,6.9,0.1,10.4,0.1c1.8,0,3.5,0.1,5.3,0.1c1.8,0,3.5-0.1,5.3,0c3.5,0.1,7,0.2,10.4,0.2c2,0,4,0,5.9,0
			c2,0,3.9,0.1,5.9,0.2C207.3,83.7,207.3,84.8,207.3,85.9z M207.3,80.6c0,0.5,0,1,0,1.5c-3.5-0.1-7-0.2-10.5-0.2
			c-1.7,0-3.5,0-5.2-0.1c-1.8-0.1-3.5,0-5.3-0.1c-1.8-0.1-3.5,0-5.3-0.1c-1.8,0-3.5-0.1-5.3-0.1c-3.5-0.1-7-0.1-10.5-0.1
			c-1.9,0-3.7,0-5.6,0c-1.3,0-2.6-0.1-3.9,0c0-1,0-2.1,0-3.1c3.2,0.1,6.4,0.2,9.6,0.2c3.4,0,6.8,0,10.2,0c6.8,0,13.5,0.2,20.3,0.2
			c1.9,0,3.8,0,5.8,0c0.9,0,1.9,0.1,2.8,0.1c1,0,1.9,0,2.8-0.1C207.3,79.3,207.3,79.9,207.3,80.6z M207.1,101.1c0,0-0.1-0.1-0.1-0.1
			c-1.7,0-3.4,0-5,0c-1.7,0-3.3-0.1-5-0.1c-3.4,0.1-6.7,0-10.1,0c-1.7,0-3.3-0.1-5-0.1c-1.7,0-3.4,0-5.1,0c-1.6,0-3.3,0-4.9,0
			c-1.7,0-3.4,0-5,0c-3.7,0-7.4,0-11,0.1c0-1,0-2.1,0-3.1c0-0.1,0-0.1,0-0.2c1.6,0,3.3-0.1,4.9,0c1.7,0,3.3,0.1,5,0
			c1.7-0.1,3.4,0.1,5.1,0c1.7-0.1,3.4-0.1,5.1-0.1c6.6,0,13.1,0,19.7,0.1c3.6,0,7.3,0.1,10.9,0.1c0.3,0,0.3-0.5,0-0.5
			c-6.5-0.1-12.9-0.2-19.4-0.2c-3.3,0-6.6,0-9.9,0c-1.7,0-3.3-0.1-5,0c-0.9,0-1.7,0.1-2.6,0.1c-0.8,0-1.7-0.1-2.5-0.1
			c-1,0-1.9,0.1-2.9,0.1c-0.9,0-1.8-0.1-2.8-0.1c-1.9,0-3.7,0-5.6,0c0-0.6-0.1-1.3-0.1-1.9c0-0.4,0-0.7,0-1.1c3.2,0,6.4,0.1,9.6,0.1
			c0,0.3,0,0.5,0,0.8c0,0.2,0.1,0.3,0.3,0.4c0.3,0.1,0.6,0,0.9,0c0.7,0,1.3,0,2,0c1,0,2,0,3,0.1c0.1,0,0.2,0,0.2,0
			c2,0,3.9,0.1,5.9,0.1c3.1,0,6.1,0,9.2-0.1c1.7-0.1,3.4,0.1,5.2,0.1c1.7,0,3.4,0,5.2,0c0.1,0,0.2-0.1,0.2-0.2c0-0.4,0-0.7,0-1.1
			c3.3,0,6.5,0.1,9.8,0.1C207.1,96.6,207.1,98.9,207.1,101.1z M197.3,93.8c0-1.2-0.1-2.3-0.1-3.5c3.3,0,6.6,0.1,9.9,0.1
			c0,0,0.1,0,0.1,0c0,0.3,0,0.6,0,0.9c0,0.9,0,1.7,0,2.6C203.9,93.8,200.6,93.8,197.3,93.8z M207.2,75.4c0,0.9,0,1.8,0,2.7
			c-1.7,0-3.3,0-5,0c-1.7-0.1-3.4,0-5.1,0c-3.4,0.1-6.8,0-10.2,0c-3.4,0-6.8,0-10.2-0.1c-3.4-0.1-6.8,0-10.2,0
			c-3.6,0-7.3-0.1-10.9-0.2c0-0.3,0-0.6,0-0.9c0-0.7,0-1.4,0.1-2.1c3.3,0,6.6,0,9.9,0c3.4,0,6.7,0.1,10.1,0c1.7,0,3.3-0.1,5,0
			c1.7,0,3.4,0,5.1,0c3.3,0,6.7,0,10,0c1.9,0,3.8-0.1,5.6-0.1c1,0,1.9,0.1,2.9,0.1c0.9,0,1.8,0,2.6,0
			C207.2,75,207.2,75.2,207.2,75.4z M136.5,16.5c0,1.1,0,2.2,0,3.3c0,0-0.1,0-0.1,0c-3.1,0.1-6.2,0.2-9.2,0.2c0,0,0,0-0.1,0
			c0-0.4,0-0.8,0-1.2c0,0,0,0,0.1,0c3,0,6.1,0,9.1,0c0.3,0,0.3-0.5,0-0.5c-3-0.1-6.1-0.1-9.1,0c0,0-0.1,0-0.1,0c0-0.6,0-1.1,0-1.7
			C130.2,16.7,133.4,16.3,136.5,16.5z M53.8,71.3c3.7-5.7,7.4-11.4,11.1-17.2c1.9-2.9,3.7-5.8,5.6-8.7c0.9-1.5,1.9-2.9,2.9-4.3
			c0.9-1.5,1.8-2.9,2.8-4.4c1.1-1.6,2.2-3.2,3.2-4.8c1-1.6,2-3.2,3-4.8c0.1-0.1,0-0.2,0-0.2c0,0,0,0,0.1,0c1.1-0.2,2.2-0.2,3.3-0.2
			c1.4,0,2.7-0.1,4.1-0.1c1.5,0,2.9,0,4.4,0c1.4,0,2.8,0.1,4.2,0c1.5-0.1,3,0,4.5,0c1.5,0,3,0,4.5,0c1.5,0,3-0.1,4.6-0.1
			c1.5,0,3,0,4.6,0c1.7,0,3.4,0,5.2,0c1.7,0,3.3-0.1,5-0.1c0,3,0.1,6,0.1,9c0,0,0,0,0,0.1c-1.2,2.2-2.3,4.5-3.5,6.7
			c-0.7,1.1-1.2,2.4-1.8,3.5c-0.6,1.2-1.2,2.3-1.7,3.5c-0.5,1.2-1.1,2.4-1.7,3.5c-0.6,1.2-1.1,2.4-1.7,3.5c-0.6,1.2-1.2,2.3-1.8,3.5
			c-0.6,1.2-1.1,2.4-1.6,3.6c-0.6,1.3-1.3,2.6-1.9,4c-0.7,1.3-1.2,2.7-1.8,4c-1.6,0-3.2-0.1-4.9,0c-1.8,0-3.6-0.1-5.4-0.1
			c-3.8,0-7.5,0.3-11.3,0.1c-1.9-0.1-3.7,0-5.6-0.1c-1.9,0-3.7,0.1-5.6,0.1c-1.9,0-3.7,0.1-5.6,0.1c-1.9,0-3.7-0.1-5.6-0.1
			c-1,0-2.1,0.1-3.1,0.1c-1,0-2-0.1-2.9-0.1c-1,0-2,0-2.9,0C55.5,71.2,54.7,71.3,53.8,71.3z M57.5,113.7c0-0.1,0-0.1,0-0.2
			c1.6,0,3.2,0,4.8-0.1c1.7-0.1,3.3,0,5,0c1.7,0,3.4,0,5.1,0s3.4-0.1,5.1-0.2c6.7-0.1,13.4-0.2,20.1-0.2c1.9,0,3.8,0,5.6,0
			c1.9,0,3.8-0.1,5.7-0.1c0,1.2,0.1,2.5,0.1,3.7c0,0,0,0,0,0c-1.5,0.1-3,0.2-4.6,0.1c-1.6,0-3.2,0.1-4.8,0.1c-3.4,0-6.8,0-10.3,0
			c-6.8,0-13.6,0-20.4,0c-1.9,0-3.8,0.1-5.7,0.1c-1.8,0-3.7,0-5.5,0C57.6,115.8,57.5,114.7,57.5,113.7z M57.5,105.3
			c1.6,0,3.2,0,4.8,0c1.7,0,3.5,0,5.2,0c3.4,0.1,6.9,0,10.3,0c3.5,0.1,6.9,0.1,10.4,0.1c3.4,0,6.9,0.2,10.3,0.1
			c3.4-0.1,6.9,0,10.4,0.1c0,0.7,0,1.4,0,2.1c0,0.3,0,0.5,0,0.8c-1.2,0-2.5,0-3.7,0c-1.6,0-3.3,0-4.9,0c-3.5,0-7,0.1-10.4,0.1
			c-3.5,0-6.9,0.2-10.4,0.2c-3.5-0.1-7,0.1-10.5,0.1c-3.8,0.1-7.6,0-11.4,0.1c0-0.2,0-0.5,0-0.7C57.5,107.3,57.5,106.3,57.5,105.3z
			 M57.3,87.5c0-0.3,0-0.6,0-0.9c3,0,5.9,0,8.9,0c0,1.1,0,2.2,0,3.3c-3,0-5.9,0.1-8.9,0C57.3,89.1,57.3,88.3,57.3,87.5z M67.7,82.3
			c1.7-0.1,3.5-0.1,5.2-0.1c1.8,0,3.5-0.1,5.3-0.1c1.8,0,3.5-0.1,5.3-0.1c1.8,0,3.5,0,5.3,0c3.5,0,7,0,10.6-0.1c3.1,0,6.3-0.2,9.4,0
			c0,0,0,0,0,0c0.1,1.4,0.1,2.8,0.1,4.1c-3.7,0-7.4,0-11.1,0c0-0.4-0.1-0.8-0.1-1.2c0-0.1-0.1-0.2-0.2-0.2
			c-3.8-0.3-7.6-0.3-11.4-0.4c-2.2,0-4.4-0.1-6.6-0.1c-2.1,0-4.2,0-6.3,0.2c-2.2,0.2-4.4,0-6.6,0.3c-0.1,0-0.1,0-0.2,0.1
			c-0.1,0-0.2,0.1-0.2,0.2c0,0.4,0,0.8,0,1.1c-3,0-5.9,0-8.9,0c0-1.2,0-2.4,0-3.6C60.8,82.4,64.3,82.5,67.7,82.3z M108.9,100.9
			c-3.3,0-6.6,0-9.9,0c-3.4,0-6.8,0-10.2,0c-6.7,0-13.4,0-20.2,0.1c-1,0-1.9,0.1-2.9,0.1c-0.9,0-1.9-0.1-2.8-0.1
			c-1.9,0-3.7,0.1-5.6,0.1c0-1.1,0-2.1,0-3.2c0-0.1,0-0.1,0-0.2c6.5,0,13,0,19.4,0c3.4,0,6.8-0.1,10.2-0.1c1.7,0,3.5,0.1,5.2,0
			c0.8,0,1.7-0.1,2.5-0.1c0.9,0,1.8,0.1,2.6,0.1c0.9,0,1.9-0.1,2.8-0.1c1,0,2,0.1,2.9,0.1c1.9,0,3.8,0,5.7,0
			C108.9,98.7,108.9,99.8,108.9,100.9z M104,97.2c-1.7,0-3.5-0.1-5.2,0c-1.7,0.1-3.5-0.1-5.2,0c-1.7,0.1-3.4,0.1-5.1,0
			c-3.4,0-6.9-0.1-10.3,0c-1.7,0.1-3.3,0-5,0c-1.7,0-3.3,0.1-4.9,0c-3.6,0-7.2,0-10.8,0c0-1,0-1.9,0-2.9c2.9,0,5.8-0.1,8.7-0.1
			c0,0.4,0,0.7,0,1.1c0,0.1,0.1,0.2,0.2,0.2c1.5,0,3,0,4.5,0c1.5,0,3.1,0.1,4.6,0.1c1.9,0,3.9-0.1,5.8-0.1c0.1,0,0.2,0,0.2,0
			c1,0,2.1,0,3.1,0c1.6,0,3.2,0.1,4.8,0.1c0.8,0,1.6,0,2.4,0h0c0.7,0,1.4,0,2.2,0c1.2,0,2.3,0,3.5-0.1c0.2,0,0.4,0,0.5-0.2
			c0.1-0.2,0.1-0.5,0.1-0.8c0-0.1,0-0.2,0-0.4c3.6,0,7.2,0,10.8,0c0,1,0,2,0,3C107.3,97.1,105.6,97.2,104,97.2z M108.9,92.2
			c0,0.5,0,0.9,0,1.4c-3.6,0-7.2,0-10.8,0c0-0.7,0-1.4,0-2.1c0-0.1,0-0.1,0-0.2c0-0.4,0-0.7,0-1.1c3.6,0.1,7.2,0.1,10.7,0.1
			C108.9,91,108.9,91.6,108.9,92.2z M72.7,94.9c0-1.2,0.1-2.3,0.1-3.5c2.1,0,4.2,0,6.4,0c0.7,0,1.4,0,2.1,0.1c0,1.2,0,2.4,0,3.6
			c-1.7,0-3.4,0-5.1,0.1c-1.2,0-2.4,0-3.5-0.1C72.7,95,72.7,95,72.7,94.9z M81.7,95c0-1.2,0-2.4,0-3.6c1.1,0,2.2,0.1,3.4,0
			c2-0.1,4,0,6,0.1c0.1,0,0.3,0,0.4,0c0,1.2,0.1,2.4,0.1,3.5c-0.7,0-1.4,0-2.1,0c-1.5,0-2.9-0.1-4.4-0.1C84,95,82.9,95,81.7,95z
			 M92.1,95.1c0-1.2-0.1-2.3-0.1-3.5c0.8,0,1.6,0.1,2.4,0.1c1.1,0.1,2.2,0,3.3,0.1c0,0.5,0,1.1,0,1.6c0,0.5,0,1,0,1.5
			c0,0.1,0,0.1,0,0.1c-0.1,0-0.2,0-0.3,0c-1.2,0.1-2.3,0.1-3.5,0.1C93.3,95,92.7,95,92.1,95.1z M97.3,85.1c0.2,1.5,0.3,3.1,0.3,4.7
			c-0.2,0.1-0.2,0.4,0,0.5c0,0.3,0,0.6,0,1c-0.9,0-1.8,0-2.8-0.1c-1,0-1.9-0.1-2.9-0.1c-0.1-2-0.1-4.1-0.2-6.1c0,0,0-0.1,0-0.1
			c1,0,1.9,0.1,2.9,0.2C95.6,85,96.5,85.1,97.3,85.1z M91.5,91c-1.9-0.1-3.8-0.3-5.7-0.1C84.9,90.9,84,91,83,91c-0.4,0-0.8,0-1.2,0
			c0-2.1,0-4.1-0.1-6.2c0,0,0,0,0,0c3.2,0,6.5,0.1,9.7,0.1c0,0,0,0.1,0,0.1C91.4,87,91.5,89,91.5,91z M81.3,90.9c-0.4,0-0.9,0-1.3,0
			c-2,0-4.1-0.1-6.1,0c-0.3,0-0.7,0-1,0c0-2,0.1-4,0.1-6c0.9-0.1,1.7-0.1,2.6-0.1c1,0,2,0,3.1,0c0.9,0,1.7,0,2.6,0
			C81.3,86.8,81.3,88.8,81.3,90.9z M72.3,90.9c-0.6,0-1.2,0-1.8,0c-1.2,0-2.3,0-3.5,0c-0.3,0-0.3,0.5,0,0.5c1.8,0,3.5,0,5.3,0
			c0,1.2-0.1,2.3-0.1,3.5c0,0.1,0,0.2,0.1,0.2c-0.4,0-0.8,0-1.1,0c-1.5,0-3,0-4.5,0c-0.1-2.9,0.1-5.7,0.1-8.6c0.1-0.1,0.1-0.2,0-0.3
			c0-0.3,0-0.7,0-1c1.9-0.2,3.8-0.1,5.6-0.2c0,0,0.1,0,0.1,0C72.4,86.9,72.4,88.9,72.3,90.9z M109,87.2c0,0.8-0.1,1.7-0.1,2.5
			c0,0.1,0,0.2,0,0.3c-3.6,0-7.2,0-10.7-0.1c0-1.1-0.1-2.2-0.2-3.3c3.7,0,7.4,0,11,0C109,86.8,109,87,109,87.2z M66.2,90.4
			c0,1.1,0,2.3,0,3.4c-2.9,0-5.8,0.1-8.7,0.1c0-0.4,0-0.8,0-1.2c0-0.8,0-1.5-0.1-2.2C60.3,90.4,63.3,90.4,66.2,90.4z M57.5,103.2
			c0-0.5,0-1.1,0-1.6c1.6,0,3.2,0,4.9-0.1c1.7,0,3.3,0.1,5,0c3.4-0.1,6.8-0.1,10.2-0.1c1.7,0,3.3,0,5,0c1.7,0,3.4-0.1,5.1,0
			c1.7,0,3.3-0.1,5,0c1.7,0,3.4,0,5.1,0c3.7,0,7.5,0,11.2,0c0,0.4,0,0.8,0,1.2c0,0.9,0,1.7,0,2.6c-3-0.1-6-0.2-9-0.2
			c-3.4,0-6.9-0.1-10.3-0.1c-6.9,0-13.8,0-20.7-0.1c-3.8,0-7.6,0-11.3-0.1C57.5,104.3,57.5,103.7,57.5,103.2z M67.5,109.5
			c1.7,0,3.5,0,5.2-0.1c1.8,0,3.5-0.1,5.3-0.1c3.5,0.1,6.9-0.1,10.4-0.1c3.5,0,7,0,10.5-0.1c1.9,0,3.7,0,5.6,0c1.5,0,2.9-0.1,4.4,0
			c0,1.1,0,2.2,0,3.4c-3.3,0-6.7,0-10,0c-3.4,0-6.8,0-10.1,0c-6.7,0.1-13.4,0.3-20.1,0.4c-3.7,0-7.4,0.1-11.1,0.1
			c0-1.1-0.1-2.3-0.1-3.4C60.8,109.5,64.2,109.6,67.5,109.5z M108.9,81.4c-2.7-0.2-5.4,0-8.1,0c-3.5,0.1-7,0.1-10.5,0.1
			c-1.8,0-3.5,0-5.3,0c-1.8,0-3.5,0.2-5.3,0.1c-3.5,0-7,0-10.5,0.1c-2,0-4,0.2-6,0.2c-1.9,0-3.8,0-5.7,0c0-1.1-0.1-2.2-0.1-3.3
			c0.8,0,1.6-0.1,2.4-0.1c0.9,0,1.7,0,2.6,0.1c1.7,0,3.4,0,5.1,0c3.4-0.1,6.9-0.1,10.3,0c3.5,0,6.9,0,10.4,0c3.4,0,6.8-0.1,10.3-0.1
			c3.5,0,7,0,10.5-0.1C108.8,79.4,108.8,80.4,108.9,81.4z M104.6,120.8c-1.7,0.1-3.3,0-5,0.1c-3.4,0.1-6.8,0.1-10.2,0.1
			c-3.4,0-6.8,0.1-10.1,0c-3.4,0-6.8,0-10.2,0c-3.7,0-7.5,0-11.2,0c0-0.7,0-1.5,0-2.2c0-0.5,0-0.9,0-1.4c3.3,0,6.6,0.1,9.9,0
			c1.7-0.1,3.4,0,5.1,0c1.7,0,3.4,0,5.2,0c1.7,0,3.4,0,5.1,0c1.7,0,3.4,0.1,5.2,0c1.7,0,3.4,0,5.1,0c1.7,0,3.4-0.1,5.1-0.1
			c0.9,0,1.9,0,2.8,0c0.9,0,1.8-0.1,2.7-0.1c0.9,0,1.8,0.1,2.7,0c0.9,0,1.7-0.1,2.6-0.2c0,0,0,0,0,0c0,0.5,0,1.1,0,1.6
			c0,0.6-0.1,1.3-0.1,1.9C107.4,120.7,106,120.7,104.6,120.8z M117.3,123.5c-0.8-0.8-1.5-1.5-2.3-2.2c-0.4-0.4-0.9-0.8-1.3-1.3
			c-0.3-0.4-0.7-0.8-0.7-1.3C115.2,119.2,117,121.2,117.3,123.5z M121.7,118.6c0.2,0.5-0.3,1-0.6,1.3c-0.4,0.4-0.9,0.8-1.3,1.2
			c-0.7,0.7-1.3,1.5-1.8,2.4c0-0.1,0-0.2,0-0.3c0,0,0.1-0.1,0.1-0.1c0,0,0-0.1,0-0.1c0-0.2,0-0.3,0-0.5
			C118.5,120.7,119.5,118.6,121.7,118.6z M117.6,121.4c-0.2-1-0.5-2-0.6-3.1c-0.1-0.8-0.2-1.7-0.3-2.5c0-0.4-0.2-1.4,0.2-1.7
			c0.7-0.3,0.6,1.3,0.6,1.6c0,0.8,0,1.7,0.1,2.5C117.6,119.3,117.6,120.4,117.6,121.4z M153.7,123.8c-0.6,0-1.2-0.2-1.9-0.3
			c-1.3-0.2-2.5,0.4-3.7,0.3c-1.1,0-2.1-0.7-3.2-0.6c-0.5,0.1-1,0.2-1.5,0.4c-0.7,0.2-1.3,0.2-2,0.2c-2.6-0.2-5.3,0.1-7.9,0
			c-1.3,0-2.5-0.3-3.8-0.3c-1.3,0-2.5,0-3.7,0.1c0-3.6-0.1-7.2-0.1-10.8c0-3.8,0.1-7.6,0-11.4c-0.1-2.1,0-4.3,0-6.4
			c0,0,0.1,0.1,0.2,0.1c4.3,0.1,8.5,0,12.8,0.1c0,0,0.1,0,0.1,0c0,3.6-0.1,7.1-0.1,10.7c0,3.7,0,7.4,0.1,11.2c0,2.1,0,4.2,0.1,6.3
			c0,0.3,0.5,0.3,0.5,0c-0.1-3.7-0.1-7.4-0.1-11.2c0-3.7-0.1-7.4,0-11.2c0.1-2.1,0.1-4.2,0.1-6.3c0-0.3-0.5-0.3-0.5,0
			c0,0-0.1,0-0.1,0c-4.2-0.1-8.5,0-12.8-0.1c-0.1,0-0.2,0.1-0.2,0.2c-0.1-0.1-0.4-0.1-0.4,0.2c0,7.6,0,15.2-0.1,22.9
			c0,1.9,0.1,3.9,0.1,5.8c-2.4,0.2-4.9-0.1-7.3,0.2c0,0,0,0,0,0c0.8-1.3,1.8-2.4,2.9-3.4c0.4-0.4,1-0.9,1.1-1.4c0.1-0.4,0-1-0.5-1
			c-1.2,0-2.3,0.8-3,1.7c-0.2,0.3-0.4,0.6-0.6,1c0-0.8,0-1.6,0-2.4c0-0.8,0-1.5-0.1-2.3c0-0.6,0-1.2-0.2-1.8c-0.3-0.8-1.2-0.8-1.6,0
			c-0.2,0.5-0.2,1.1-0.1,1.6c0.1,0.7,0.2,1.5,0.3,2.2c0.2,1.1,0.4,2.2,0.7,3.3c-0.9-1.6-2.4-2.9-4.2-3.3c-0.1,0-0.3,0-0.3,0.2
			c-0.4,1.2,0.9,2.1,1.6,2.8c1,1,2.1,2,3.1,3c-0.2,0-0.5,0.1-0.8,0.1c-0.8,0.1-1.5-0.1-2.2-0.2c-1.2-0.2-2.4-0.2-3.6-0.2
			c-0.5,0-1,0-1.5,0c0-0.9,0-1.9,0.1-2.8c0.1-0.1,0.1-0.2,0-0.3c0-0.5,0-0.9,0.1-1.4c0.1-1.7,0-3.4,0-5.1c0-1.7,0-3.5,0-5.2
			c0-1.7,0-3.4,0-5.1c0-0.9,0-1.7-0.1-2.6c0-0.9,0.1-1.7,0.1-2.6c0.1-1.7,0.1-3.5,0-5.2c0-1.1-0.1-2.2-0.1-3.3c0-0.1,0-0.2,0-0.2
			c0-0.5,0-1.1,0.1-1.6c0-0.6,0.1-1.3,0.1-1.9c0.1-0.1,0.1-0.2,0-0.3c0-1,0-1.9,0-2.9c0-0.5,0-0.9,0-1.4c0.1-0.1,0.1-0.3,0-0.4
			c0-1.1,0-2.1,0-3.2c0.2-0.1,0.2-0.4,0-0.5c0-0.1,0-0.2,0-0.4c0-1,0-1.9,0-2.9c0.2-0.1,0.2-0.4,0-0.4c0-0.6,0-1.3,0-1.9
			c0-0.3-0.5-0.3-0.5,0c0,0.6,0,1.3,0,1.9c-3.2,0-6.4,0.1-9.6,0.1c-3.4,0-6.7,0-10.1,0c-1.7,0-3.3,0.1-5,0c-1.7,0-3.4,0-5,0
			c-3.3,0-6.7,0-10,0c-1.9,0-3.8,0.1-5.6,0.1c-1,0-1.9-0.1-2.9-0.1s-1.9,0-2.9,0c-0.3,0-0.3,0.5,0,0.5c3.3,0,6.7,0.1,10,0
			c3.4-0.1,6.7,0,10.1,0c3.3,0,6.7,0.1,10,0c3.3-0.1,6.7,0,10,0c3.7,0,7.3-0.1,11-0.1c0,1.1,0,2.2,0,3.2c-3,0.1-6.1,0.1-9.1,0.1
			c-3.5,0-6.9,0.1-10.4,0.2c-1.7,0-3.4,0-5.1,0c-1.7,0-3.5,0.1-5.2,0c-3.4-0.1-6.8,0-10.3,0c-1.9,0-3.9,0.1-5.8,0.1
			c-1,0-1.9-0.1-2.9-0.1c-0.9,0-1.8,0.1-2.8,0.1c0-0.5,0-1,0.1-1.6c0.1-0.8,0.1-1.7,0.1-2.5c0-0.8,0-1.5,0-2.3c0,0,0,0,0,0
			c0.3,0,0.7,0,1,0c1.8,0,3.6,0.1,5.3,0c1.9-0.1,3.8,0,5.7,0c1.9,0,3.7-0.1,5.6-0.1c1.9,0,3.7-0.1,5.6-0.1c1.9,0,3.7,0,5.6,0
			c1.9,0.1,3.7,0.1,5.6,0.1s3.7-0.1,5.6-0.2c1,0,2.1,0,3.1,0c1,0,2,0.1,2.9,0.1c1.9,0,3.8,0,5.8,0c0,0,0,0,0,0c0.1,0,0.2,0,0.2-0.1
			c0.5-1.2,1-2.5,1.6-3.7c0.6-1.1,1.1-2.3,1.7-3.4c0.6-1.2,1.1-2.5,1.7-3.7c0.6-1.2,1.2-2.3,1.8-3.5c0.6-1.2,1.1-2.4,1.7-3.5
			c0.6-1.2,1.2-2.3,1.8-3.5c1.1-2.4,2.3-4.7,3.4-7.1c0.6-1.3,1.4-2.4,2-3.7c0.7-1.3,1.4-2.7,2.1-4c0-0.1,0-0.2,0-0.3
			c0-4.9-0.1-9.8-0.2-14.7c0,0,0,0,0.1,0c3.1-0.1,6.2-0.2,9.2-0.2c0.1,0,0.1,0,0.1,0c0,4.9-0.1,9.8,0,14.7c0,0.1,0,0.1,0.1,0.2
			c1.3,2.2,2.5,4.4,3.7,6.7c1.3,2.5,2.6,4.9,4,7.3c0.7,1.1,1.1,2.3,1.7,3.5c0.6,1.3,1.4,2.4,2,3.7c0.6,1.2,1.1,2.4,1.8,3.5
			c0.7,1.2,1.3,2.4,1.9,3.7c0.6,1.3,1.2,2.7,1.9,4c0.6,1.3,1.2,2.6,1.7,4c0.1,0.2,0.2,0.2,0.4,0.1c0,0.7-0.1,1.5-0.1,2.2
			c0,0.8,0,1.6-0.1,2.4c-0.1,1.6,0,3.2,0,4.9c0,1.7,0,3.4,0,5.1c0,0.9,0,1.7,0,2.6c0,0.9-0.1,1.7-0.1,2.6c-0.1,1.7-0.1,3.4,0,5.1
			c0.1,1.6,0,3.1,0,4.7c0,0,0,0,0,0.1c0,0.1,0,0.3,0,0.4c0,1.7,0.1,3.4,0.1,5.1c0,0.6,0,1.2,0,1.8c0,0-0.1,0-0.1,0
			c-0.3,0-0.3,0.5,0,0.5c0,0,0,0,0.1,0c0,0.9,0,1.8,0,2.8c0,1.9,0,3.9,0,5.8c0.1,2,0.3,3.9,0.4,5.8c0,0.1,0.1,0.2,0.2,0.2
			c-0.1,0-0.2,0-0.4,0C155,123.8,154.4,123.9,153.7,123.8z M200.3,123.3c-2.5,0.1-4.9,0.1-7.3,0c-2.4-0.1-4.8,0.6-7.3,0.3
			c-1.1-0.2-2.1-0.6-3.2-0.4c-0.6,0.1-1.3,0.3-1.9,0.4c-0.7,0.1-1.3,0-2,0c-2.6-0.1-5.3-0.1-7.9-0.1c-1.4,0-2.7,0-4.1,0.1
			c-0.6,0-1.1,0-1.7,0.1c-0.7,0.1-1.3,0.2-2,0.3c-1.2,0-2.4-0.4-3.6-0.3c-1,0.1-2.1,0.2-3.1,0.2c0.1,0,0.1-0.1,0.1-0.2
			c0-0.8-0.1-1.6-0.2-2.4c3,0.2,6,0.3,9,0.3c3.2,0,6.4,0,9.6,0c3.4,0.1,6.8,0.1,10.3,0c3.4-0.1,6.8,0.1,10.2,0.1
			c3.8,0,7.6-0.1,11.4-0.1c-0.1,0.6-0.1,1.1-0.2,1.7c-0.9,0.1-1.8,0.4-2.8,0.4C202.5,123.5,201.4,123.2,200.3,123.3z M207.2,74.3
			c-3.3,0-6.5-0.1-9.8-0.1c-3.4,0.1-6.7,0-10.1,0c-3.3,0-6.7-0.1-10,0c-3.3,0.1-6.7,0-10.1,0c-3.7,0-7.5,0-11.2,0c0,0,0-0.1,0-0.1
			c0-0.9,0.1-1.7,0.1-2.6c0,0,0,0,0,0c1.5-0.1,3.1-0.1,4.6-0.1c1.7-0.1,3.4,0,5.2,0c1.8,0,3.5-0.1,5.3-0.2c0.9,0,1.8,0,2.7,0
			c0.9,0,1.9,0.1,2.8,0.1c0.9,0,1.8-0.1,2.7-0.1c0.9,0,1.9,0,2.8,0c1.8,0,3.7,0,5.5,0c1.8,0,3.6-0.1,5.4,0c1.7,0.1,3.4,0,5.1,0
			c1,0,1.9-0.1,2.9,0c1,0,1.9,0.1,2.9,0.1c1,0,1.9-0.1,2.9-0.1c0,0,0.1,0,0.1,0C207.1,72.2,207.1,73.3,207.2,74.3z M152.3,117.7
			c-2.8,0.1-4.1,2.7-4.8,5.1c0,0,0,0,0-0.1c0.3-1.3,0.6-2.7,0.8-4.1c0.2-1.4,0.4-3.1,0.1-4.5c-0.2-0.7-1.1-2.5-1.9-1.3
			c-0.4,0.5-0.4,1.2-0.4,1.8c-0.1,0.9-0.1,1.8,0,2.6c0.1,1.2,0.3,2.4,0.5,3.6c-0.2-0.5-0.5-0.9-0.8-1.4c-0.4-0.6-1.4-2-2.3-1.4
			c-0.4,0.3-0.3,0.9-0.1,1.3c0.2,0.6,0.6,1.2,0.9,1.7c0.7,0.9,1.5,1.7,2.5,2.3c0,0.1,0.1,0.2,0.2,0.2c0,0,0,0,0,0c0,0,0,0,0,0
			c0,0.2,0.2,0.2,0.3,0.2c0.1,0,0.3,0,0.3-0.2c0-0.1,0-0.1,0.1-0.2c0.3-0.1,0.6-0.3,0.9-0.6c0.6-0.5,1.1-0.9,1.7-1.4
			c1-0.9,1.9-2.1,2.2-3.4C152.6,117.8,152.5,117.7,152.3,117.7z M146.5,114.8c0-0.4,0.1-0.9,0.2-1.3c0.1-0.3,0.1-0.5,0.4-0.5
			c0.3,0,0.4,0.2,0.5,0.4c0.4,0.7,0.4,1.4,0.4,2.2c0,0.8-0.1,1.7-0.2,2.5c-0.1,1.1-0.3,2.3-0.6,3.4c-0.3-1.4-0.5-2.7-0.7-4.1
			C146.5,116.6,146.5,115.7,146.5,114.8z M145.3,121.5c-0.4-0.4-0.7-0.8-0.9-1.3c-0.1-0.2-0.2-0.4-0.3-0.6c-0.1-0.1-0.1-0.3-0.2-0.4
			c-0.1-0.2-0.1-0.3,0-0.5c0.1-0.2,0.1-0.2,0.4-0.1c0.1,0,0.2,0.1,0.3,0.2c0.2,0.1,0.3,0.3,0.5,0.5c0.3,0.4,0.6,0.9,0.9,1.3
			c0.4,0.7,0.8,1.5,1,2.3C146.3,122.5,145.8,122,145.3,121.5z M150.2,120.9c-0.4,0.4-0.9,0.8-1.3,1.2c-0.3,0.2-0.5,0.5-0.8,0.6
			c0.7-2,1.7-4.3,4-4.6C151.7,119.3,151,120.1,150.2,120.9z M134.2,79.8c0.1-0.1,0.1-0.2,0-0.3c-0.1-0.1-0.3-0.1-0.3,0
			c-0.4,0.4-0.7,0.8-1.1,1.2c0-0.6,0-1.3,0-1.9c0-0.3-0.5-0.3-0.5,0c0,0.8,0,1.6,0,2.4c-0.4-0.6-0.8-1.3-1.2-1.9
			c-0.2-0.3-0.6,0-0.4,0.2c0.5,0.8,1,1.6,1.5,2.3c0,0.1,0.1,0.1,0.1,0.1c0,0.8,0,1.7,0,2.5c-0.5-0.6-0.9-1.2-1.2-1.9
			c-0.1-0.1-0.2-0.2-0.3-0.2c-0.1,0-0.2,0.2-0.2,0.3c0.4,0.9,1,1.8,1.7,2.5c0,0.4,0,0.8,0,1.2c-0.4-0.4-0.8-0.8-1.2-1.2
			c-0.2-0.2-0.6,0.1-0.3,0.3c0.5,0.5,0.9,1,1.4,1.5c0,0,0.1,0.1,0.1,0.1c0,0.3,0,0.6,0,0.9c0,0.3,0.5,0.3,0.5,0c0-0.4,0-0.8,0-1.2
			c0.4-0.4,0.7-0.8,1-1.3c0.1-0.3-0.3-0.5-0.4-0.2c-0.2,0.3-0.4,0.6-0.6,0.8c0-0.3,0-0.6,0-0.9c0.5-0.6,0.9-1.2,1.4-1.8
			c0.1-0.1,0.1-0.2,0-0.3c-0.1-0.1-0.3-0.1-0.3,0c-0.3,0.4-0.7,0.9-1.1,1.3c0-1,0-2,0-2.9C133.2,80.9,133.7,80.3,134.2,79.8z
			 M132.3,56.2C132.3,56.2,132.3,56.2,132.3,56.2c0.1,0.1,0.1,0.1,0.1,0.1c0,0,0.1,0,0.1,0c0,0,0,0,0.1,0c0,0,0.1,0,0.1-0.1
			c0,0,0,0,0-0.1c0,0,0-0.1,0-0.1c0-0.1,0-0.1,0-0.2c0,0,0-0.1,0-0.1c0,0,0-0.1,0-0.1c0,0-0.1,0-0.1-0.1c0,0-0.1,0-0.1,0
			c0,0,0,0-0.1,0c0,0-0.1,0-0.1,0.1c0,0,0,0,0,0c0,0,0,0.1,0,0.1C132.3,56,132.3,56,132.3,56.2C132.2,56.1,132.3,56.2,132.3,56.2z
			 M132.7,51c0.3,0,0.3-0.5,0-0.5C132.4,50.5,132.4,51,132.7,51z M132.9,45.7c0.3,0,0.3-0.5,0-0.5C132.6,45.3,132.6,45.7,132.9,45.7
			z M129,11.3c0.3,0.9,1.4,1.1,2.3,0.9c0.1,0.4,0.6,0.8,1,0.6c0.3-0.1,0.5-0.4,0.5-0.7c0.5,0,1-0.2,1.2-0.7c0.2-0.4,0.1-0.8-0.1-1.1
			c0.5-0.2,0.8-0.5,0.9-1.1c0.1-0.6-0.4-1.2-1-1.4c0.2-0.7-0.3-1.4-1-1.5c-0.7-0.1-1.3,0.3-1.6,0.9C130.7,7,130,7,129.6,7.4
			c-0.7,0.7-0.4,1.6,0.1,2.3C129.1,9.9,128.8,10.6,129,11.3z M130.1,10.1c0.2,0,0.3-0.3,0.2-0.4c-0.4-0.5-0.8-1.1-0.5-1.7
			c0.1-0.2,0.3-0.4,0.6-0.4c0.3,0,0.5,0.2,0.5,0.5c0,0.3,0.5,0.3,0.5,0c0-0.6,0.4-1.3,1.1-1.2c0.5,0.1,0.9,0.7,0.6,1.1
			c-0.1,0.1,0,0.4,0.2,0.4c0.5,0,0.9,0.3,0.9,0.8c0,0.5-0.5,0.8-1,0.7c-0.3-0.1-0.4,0.4-0.1,0.5c0.3,0.1,0.5,0.5,0.4,0.8
			c-0.1,0.3-0.6,0.5-0.9,0.3c-0.2-0.1-0.4,0.1-0.3,0.3c0.1,0.1,0,0.4-0.1,0.5c-0.2,0.1-0.4-0.1-0.4-0.4c0-0.2-0.2-0.3-0.3-0.2
			c-0.1-0.1-0.1-0.1-0.2-0.1c-0.6,0.2-1.4,0.1-1.7-0.5C129.2,10.7,129.5,10,130.1,10.1z M136.6,102.5c0-1.2-0.5-2.6-1.5-3.4
			c-0.5-0.4-1.1-0.5-1.6-0.4c-0.1-0.1-0.4,0-0.4,0.2c0,1.5,0,3,0,4.4c0,0.1,0.1,0.2,0.2,0.2c0.8,0,1.5,0.1,2.3,0.1
			C136.3,103.6,136.6,103,136.6,102.5z M136,101.4c0.1,0.3,0.1,0.7,0.1,1c0,0,0,0.1,0,0.2c0-0.5-0.2-1-0.3-1.5
			c-0.1-0.2-0.1-0.4-0.3-0.6c-0.1-0.1-0.1-0.3-0.2-0.4C135.6,100.5,135.9,101,136,101.4z M134.5,102.1c0-0.1,0-0.1-0.1-0.2
			c0-0.1,0-0.1,0-0.2c0,0,0,0,0,0C134.5,101.8,134.5,102,134.5,102.1C134.5,102.1,134.5,102.1,134.5,102.1z M134.3,100.9
			C134.3,100.9,134.3,100.9,134.3,100.9L134.3,100.9C134.3,100.9,134.3,100.9,134.3,100.9z M134.8,102.6
			C134.8,102.6,134.8,102.6,134.8,102.6L134.8,102.6C134.8,102.6,134.8,102.6,134.8,102.6z M133.9,99.5
			C133.9,99.5,133.9,99.5,133.9,99.5S133.9,99.5,133.9,99.5z M133.8,99.5L133.8,99.5C133.8,99.5,133.8,99.5,133.8,99.5
			c0,0,0.1,0,0.1,0.1c0,0,0,0,0.1,0.1C133.9,99.6,133.9,99.6,133.8,99.5c0,0.1-0.1,0.1-0.1,0.1c0-0.1,0-0.1,0-0.2
			C133.7,99.5,133.7,99.5,133.8,99.5z M133.8,101.8c0-0.1,0-0.2,0-0.3c0,0,0,0,0,0C133.8,101.6,133.9,101.7,133.8,101.8
			c0.1,0,0,0.1,0,0.1c0,0.1,0,0.1-0.1,0.2c-0.1,0-0.1,0.1-0.1,0.2c0-0.1,0-0.2,0-0.3C133.7,102,133.8,102,133.8,101.8z M133.6,102.4
			C133.6,102.4,133.6,102.4,133.6,102.4c0,0.1,0,0.2,0,0.2C133.6,102.5,133.6,102.4,133.6,102.4z M135.2,102.9
			c0-0.1,0.1-0.1,0.1-0.2c0.1,0.1,0.1,0.1,0.2,0.2C135.4,102.9,135.3,102.9,135.2,102.9z M134.4,99.4c-0.1-0.1-0.1-0.1-0.2-0.2
			C134.3,99.2,134.4,99.2,134.4,99.4C134.5,99.3,134.4,99.4,134.4,99.4z M133.6,102.7c0,0.1,0,0.1,0,0.2c0,0.1,0.1,0.1,0.1,0.2
			c0,0-0.1,0-0.1,0C133.6,103,133.6,102.9,133.6,102.7z M135.9,103.1C135.9,103.1,135.9,103.1,135.9,103.1
			C135.9,103.1,135.9,103.1,135.9,103.1C135.9,103.1,135.9,103.1,135.9,103.1z M131.7,103.1c0-1.3,0-2.7,0.1-4c0-0.1,0-0.1-0.1-0.2
			c0-0.1-0.1-0.1-0.2-0.1c-0.9,0-1.7,0.5-2.2,1.2c-0.1,0.1-0.2,0.2-0.3,0.4c0,0-0.1,0.1-0.1,0.1c0,0,0,0,0,0
			c-0.5,0.6-0.7,1.5-0.7,2.4c-0.2,0.1-0.1,0.4,0.1,0.4c1.1,0.1,2.1,0.1,3.2,0C131.5,103.4,131.7,103.3,131.7,103.1z M129.2,102.9
			C129.2,102.9,129.2,102.9,129.2,102.9c0-0.1,0-0.1,0.1-0.2c0,0,0.1,0,0.1,0c0,0,0.1,0.1,0.1,0.1c0.1,0,0.2,0,0.2,0
			c0.1,0,0.2,0,0.3,0.1c-0.1,0-0.2,0-0.3,0c0,0,0,0,0,0C129.5,102.9,129.4,102.9,129.2,102.9z M130.5,102.9
			C130.6,102.9,130.6,102.9,130.5,102.9c0.1-0.1,0.2-0.1,0.2-0.1c0,0,0,0.1,0,0.1C130.7,102.9,130.6,102.9,130.5,102.9z
			 M129.8,100.4c0,0.1-0.1,0.1-0.1,0.2c0,0,0,0,0,0c0,0,0,0,0,0C129.7,100.5,129.8,100.4,129.8,100.4z M131.2,99.5
			C131.2,99.4,131.2,99.4,131.2,99.5c-0.1-0.1-0.1-0.1-0.1-0.2c0,0,0.1,0,0.1,0C131.2,99.4,131.2,99.4,131.2,99.5z M130.6,99.5
			C130.6,99.5,130.6,99.5,130.6,99.5C130.6,99.5,130.6,99.5,130.6,99.5C130.6,99.5,130.6,99.5,130.6,99.5
			C130.6,99.5,130.6,99.5,130.6,99.5z M137.5,108.9C137.5,108.9,137.5,108.9,137.5,108.9C137.5,108.9,137.5,108.9,137.5,108.9z
			 M137.9,108.2C137.9,108.2,137.9,108.2,137.9,108.2C137.9,108.1,137.9,108.1,137.9,108.2c-0.1-0.1-0.1-0.2-0.1-0.2
			c0-0.1-0.2-0.2-0.3-0.2c-0.1,0-0.2-0.1-0.3-0.1c-0.2,0-0.4,0.1-0.5,0.3c-0.1,0.1-0.2,0.3-0.2,0.4c-0.1,0.2-0.1,0.4,0,0.5
			c0.1,0.3,0.4,0.5,0.8,0.5c0.3,0,0.6-0.3,0.7-0.6c0.1-0.2,0-0.4,0-0.5C138,108.4,137.9,108.3,137.9,108.2z M137.3,108.3
			C137.3,108.3,137.3,108.3,137.3,108.3C137.3,108.3,137.3,108.3,137.3,108.3C137.3,108.3,137.3,108.3,137.3,108.3z M137.3,108.3
			L137.3,108.3L137.3,108.3C137.3,108.3,137.3,108.3,137.3,108.3C137.3,108.3,137.3,108.3,137.3,108.3
			C137.3,108.3,137.3,108.3,137.3,108.3C137.3,108.2,137.3,108.3,137.3,108.3C137.3,108.3,137.3,108.3,137.3,108.3z M137.3,108.3
			L137.3,108.3C137.3,108.3,137.3,108.3,137.3,108.3z M137.3,108.3C137.3,108.3,137.3,108.3,137.3,108.3z M137,108.7
			C137,108.7,137,108.7,137,108.7z M137.4,109C137.4,109.1,137.4,109,137.4,109z M137.5,109C137.5,109,137.5,109,137.5,109
			C137.4,109,137.5,109,137.5,109z M137.5,108.9C137.5,108.9,137.5,108.9,137.5,108.9L137.5,108.9
			C137.5,108.9,137.5,108.9,137.5,108.9C137.5,109,137.5,109,137.5,108.9C137.5,109,137.5,109,137.5,108.9c-0.1,0.1-0.1,0.1-0.1,0.1
			c0,0,0,0,0,0c0,0,0,0,0,0c0,0,0,0-0.1,0c0,0,0,0,0,0c0,0,0,0,0,0c0,0,0,0-0.1,0c0,0,0,0,0,0c0,0,0,0,0,0c0,0,0,0-0.1-0.1
			c0,0,0,0,0,0c0,0,0,0,0,0c0,0,0,0,0-0.1c0,0,0,0,0,0c0,0,0,0,0-0.1c0,0,0,0,0,0c0,0,0,0,0,0c0,0,0-0.1,0-0.1c0,0,0-0.1,0-0.1
			c0,0,0,0,0,0c0,0,0,0,0,0c0-0.1,0.1-0.1,0.1-0.2c0,0,0,0,0,0c0,0,0,0,0,0c0,0,0,0,0,0c0,0,0,0,0,0s0,0,0,0c0,0,0,0,0,0h0
			c0,0,0,0,0,0s0,0,0,0c0,0,0,0,0,0c0,0,0,0,0,0c0,0,0,0,0,0c0,0,0,0,0.1,0.1c0,0.1,0.1,0.1,0.1,0.2c0,0,0,0,0,0.1c0,0,0,0,0,0.1
			c0,0,0,0.1,0,0.1c0,0,0,0,0,0c0,0,0,0,0,0C137.6,108.8,137.6,108.9,137.5,108.9C137.6,108.9,137.6,108.9,137.5,108.9
			C137.5,108.9,137.5,108.9,137.5,108.9C137.5,108.9,137.5,108.9,137.5,108.9z M137.6,108.9C137.6,108.9,137.6,108.9,137.6,108.9
			C137.6,108.9,137.6,108.9,137.6,108.9z M137.6,108.8C137.6,108.8,137.6,108.8,137.6,108.8C137.6,108.8,137.6,108.8,137.6,108.8z
			 M137.6,108.8C137.6,108.8,137.6,108.8,137.6,108.8z M137.3,108.3L137.3,108.3C137.3,108.3,137.3,108.3,137.3,108.3
			C137.3,108.3,137.3,108.3,137.3,108.3z M137.3,108.3C137.3,108.3,137.3,108.3,137.3,108.3C137.3,108.3,137.3,108.3,137.3,108.3
			C137.3,108.3,137.3,108.3,137.3,108.3z M135.9,66.3c-0.1-1.6-0.6-3.1-2.1-4c-0.9-0.6-2.1-0.6-3.1,0c-0.9,0.6-1.5,1.5-1.9,2.5
			c-0.2,0.4-0.3,0.9-0.3,1.4c-0.1,0.1-0.1,0.3,0,0.4c0,0.6,0,1.1,0.2,1.7c-0.1,0.1-0.1,0.4,0.1,0.4c0.1,0.2,0.4,0.2,0.5,0
			c1,0,2,0,2.9,0c0,0,0.1,0,0.1,0c1.1,0,2.2,0,3.4,0c0.1,0,0.2-0.1,0.2-0.2c0-0.6,0-1.3,0-2C135.9,66.4,135.9,66.4,135.9,66.3z
			 M134.3,65.5c0-0.1,0-0.2,0-0.3c0,0,0-0.1,0-0.1c0-0.1,0-0.1,0-0.2c0,0.1,0.1,0.1,0.1,0.2c0,0,0,0,0,0c0,0.1,0,0.2,0,0.3
			C134.4,65.4,134.4,65.4,134.3,65.5z M131.7,66.9c0,0,0,0.1,0,0.1c0,0,0,0,0,0c0,0,0,0.1,0,0.1c0,0,0,0,0,0
			C131.7,67.1,131.7,67,131.7,66.9z M130,65.6c0,0-0.1,0-0.1-0.1c0,0,0,0,0,0c0-0.1,0.1-0.1,0.1-0.2c0.1,0,0.1-0.1,0.2-0.1
			C130.1,65.3,130,65.5,130,65.6z M131.2,63.8C131.2,63.8,131.1,63.8,131.2,63.8C131.1,63.8,131.1,63.8,131.2,63.8
			C131.1,63.8,131.2,63.8,131.2,63.8C131.2,63.8,131.2,63.8,131.2,63.8z M133.2,67.5C133.2,67.5,133.2,67.5,133.2,67.5
			C133.2,67.5,133.2,67.5,133.2,67.5L133.2,67.5z M130.3,67.3c0-0.2,0.1-0.4,0.1-0.6c0,0.1,0,0.2,0,0.3c0,0.1,0,0.2,0,0.3
			c0,0,0,0,0,0C130.4,67.3,130.4,67.3,130.3,67.3C130.3,67.3,130.3,67.3,130.3,67.3C130.3,67.3,130.3,67.3,130.3,67.3z M134.2,67.8
			c0,0,0,0.1,0,0.1c-0.1,0-0.2,0-0.3,0C134,67.9,134.1,67.8,134.2,67.8z M134.8,67.7C134.8,67.7,134.8,67.7,134.8,67.7
			c0,0.1,0,0.2,0,0.2C134.8,67.8,134.8,67.7,134.8,67.7z M130,64.1C130,64.1,130,64.1,130,64.1C130,64.1,130,64.1,130,64.1
			c0.1-0.2,0.2-0.4,0.3-0.6C130.2,63.7,130.1,63.9,130,64.1z M130.1,67.7C130.1,67.7,130.1,67.7,130.1,67.7
			C130.1,67.7,130.1,67.8,130.1,67.7C130.1,67.7,130.1,67.7,130.1,67.7z M134.7,64c0-0.1-0.1-0.2-0.1-0.3c0.1,0.2,0.2,0.3,0.3,0.5
			C134.8,64.1,134.8,64.1,134.7,64z M133.7,62.9c-0.1-0.1-0.2-0.1-0.3-0.2C133.5,62.7,133.6,62.8,133.7,62.9
			C133.7,62.9,133.7,62.9,133.7,62.9z M132,62.8C132,62.7,131.9,62.7,132,62.8c-0.1-0.1-0.1-0.2-0.1-0.2c0-0.1,0-0.1,0-0.1
			c0,0,0.1,0,0.1,0C132,62.5,132,62.6,132,62.8z M130.3,68.2C130.3,68.2,130.3,68.2,130.3,68.2C130.3,68.2,130.3,68.2,130.3,68.2
			C130.3,68.2,130.3,68.2,130.3,68.2z M135.3,68c0.1,0,0.1-0.1,0.2-0.2c0,0,0-0.1,0-0.1c0,0.2,0,0.3,0,0.5c-0.1,0-0.2,0-0.2,0
			C135.2,68.1,135.2,68.1,135.3,68z M117.9,94.9c-0.3,0-0.3,0.5,0,0.5C118.2,95.4,118.2,94.9,117.9,94.9z M116.1,101.4
			c-0.3,0-0.3,0.5,0,0.5C116.4,101.9,116.4,101.4,116.1,101.4z M121.2,103.5c-0.3,0-0.3,0.5,0,0.5
			C121.5,104,121.5,103.5,121.2,103.5z M118.5,108.4c-0.3,0-0.3,0.5,0,0.5C118.8,108.9,118.8,108.4,118.5,108.4z M130.7,111.7
			C130.6,111.6,130.6,111.6,130.7,111.7c-0.1-0.1-0.1-0.1-0.2-0.1c0,0,0,0-0.1,0c0,0-0.1,0-0.1,0.1c0,0,0,0,0,0c0,0,0,0.1,0,0.1
			c0,0.1,0,0.1,0,0.2c0,0,0,0.1,0,0.1c0,0,0,0.1,0.1,0.1c0,0,0,0,0.1,0.1c0,0,0.1,0,0.1,0c0,0,0,0,0.1,0c0,0,0.1,0,0.1-0.1
			c0,0,0,0,0,0c0,0,0-0.1,0-0.1c0-0.1,0-0.1,0-0.2C130.7,111.8,130.7,111.8,130.7,111.7C130.7,111.7,130.7,111.7,130.7,111.7z
			 M131.9,114.9c-0.3,0-0.3,0.5,0,0.5C132.2,115.4,132.2,114.9,131.9,114.9z M136.1,117.8c-0.3,0-0.3,0.5,0,0.5
			C136.4,118.3,136.4,117.8,136.1,117.8z M136.4,112.4c-0.3,0-0.3,0.5,0,0.5C136.7,112.9,136.7,112.4,136.4,112.4z M131.1,117.3
			c-0.3,0-0.3,0.5,0,0.5C131.4,117.8,131.4,117.3,131.1,117.3z M131.6,106.8c-0.3,0-0.3,0.5,0,0.5
			C131.9,107.3,131.9,106.8,131.6,106.8z M143.3,107.7c0-0.1,0-0.2,0-0.3c0-0.1,0-0.1-0.1-0.2c0,0,0,0-0.1-0.1c0,0-0.1,0-0.1,0
			c-0.1,0-0.1,0-0.2,0.1c0,0-0.1,0.1-0.1,0.2c0,0.1,0,0.2,0,0.3c0,0.1,0,0.1,0.1,0.2c0,0,0.1,0,0.1,0.1c0,0,0.1,0,0.1,0
			c0.1,0,0.1,0,0.2-0.1C143.3,107.8,143.3,107.8,143.3,107.7z M146.4,103.3C146.4,103.3,146.4,103.3,146.4,103.3
			c0.1,0.1,0.1,0.1,0.2,0.1c0,0,0,0,0.1,0c0,0,0.1,0,0.1-0.1c0.1-0.1,0.1-0.1,0.2-0.2c0,0,0,0,0.1-0.1c0,0,0-0.1,0-0.1
			c0,0,0-0.1,0-0.1c0,0,0-0.1-0.1-0.1c0,0,0,0,0,0c0,0-0.1,0-0.1,0c0,0,0,0-0.1,0c0,0-0.1,0-0.1,0.1c-0.1,0.1-0.1,0.1-0.2,0.2
			c0,0,0,0-0.1,0.1c0,0,0,0.1,0,0.1C146.3,103.1,146.3,103.2,146.4,103.3C146.4,103.2,146.4,103.3,146.4,103.3z M150.2,109
			C150.3,109,150.3,109,150.2,109c0.1,0.1,0.1,0.1,0.2,0.1c0,0,0,0,0.1,0c0,0,0.1,0,0.1-0.1c0,0,0,0,0-0.1c0,0,0-0.1,0-0.1
			c0-0.1,0-0.1,0-0.2c0,0,0-0.1,0-0.1c0,0,0-0.1-0.1-0.1c0,0,0,0-0.1-0.1c0,0-0.1,0-0.1,0c0,0,0,0-0.1,0c0,0-0.1,0-0.1,0.1
			c0,0,0,0,0,0.1c0,0,0,0.1,0,0.1c0,0.1,0,0.1,0,0.2C150.2,108.9,150.2,108.9,150.2,109C150.2,108.9,150.2,109,150.2,109z
			 M153.3,112.9c-0.3,0-0.3,0.5,0,0.5C153.6,113.4,153.6,112.9,153.3,112.9z M154.2,121.3c-0.3,0-0.3,0.5,0,0.5
			C154.6,121.8,154.6,121.3,154.2,121.3z M150.7,114.6c0.3,0,0.3-0.5,0-0.5C150.4,114.1,150.4,114.6,150.7,114.6z M142.3,115.7
			c-0.3,0-0.3,0.5,0,0.5C142.6,116.2,142.6,115.7,142.3,115.7z M141,120c-0.3,0-0.3,0.5,0,0.5C141.3,120.5,141.3,120,141,120z
			 M121.1,115.3c-0.3,0-0.3,0.5,0,0.5C121.4,115.7,121.4,115.3,121.1,115.3z M112.1,110c-0.3,0-0.3,0.5,0,0.5
			C112.5,110.5,112.5,110,112.1,110z M111.8,122.3c-0.3,0-0.3,0.5,0,0.5C112.1,122.7,112.1,122.3,111.8,122.3z M123,121.8
			c-0.3,0-0.3,0.5,0,0.5C123.3,122.3,123.3,121.8,123,121.8z M112.8,112.7c-0.3,0-0.3,0.5,0,0.5
			C113.1,113.2,113.1,112.7,112.8,112.7z M96.5,115.1c0.3,0,0.3-0.5,0-0.5C96.2,114.6,96.2,115.1,96.5,115.1z M88.9,119.3
			C88.9,119.3,88.8,119.3,88.9,119.3c-0.1-0.1-0.1-0.1-0.2-0.1c-0.1,0-0.1,0-0.2,0c0,0-0.1,0-0.1,0c0,0-0.1,0-0.1,0.1
			c0,0,0,0-0.1,0.1c0,0,0,0.1,0,0.1c0,0,0,0,0,0.1c0,0,0,0.1,0.1,0.1c0,0,0,0,0,0c0,0,0.1,0,0.1,0c0.1,0,0.1,0,0.2,0
			c0,0,0.1,0,0.1,0c0,0,0.1,0,0.1-0.1c0,0,0,0,0.1-0.1c0,0,0-0.1,0-0.1c0,0,0,0,0-0.1C88.9,119.4,88.9,119.3,88.9,119.3z
			 M80.1,111.1c0.3,0,0.3-0.5,0-0.5C79.8,110.6,79.8,111.1,80.1,111.1z M79.1,114.9c0.3,0,0.3-0.5,0-0.5
			C78.8,114.5,78.8,114.9,79.1,114.9z M87.4,111.4c0.3,0,0.3-0.5,0-0.5C87.1,111,87.1,111.4,87.4,111.4z M65.1,122.7
			c-0.3,0-0.3,0.5,0,0.5C65.4,123.2,65.4,122.7,65.1,122.7z M64.5,119.9c-0.3,0-0.3,0.5,0,0.5C64.8,120.4,64.8,119.9,64.5,119.9z
			 M71.2,103.2c0.3,0,0.3-0.5,0-0.5C70.8,102.7,70.8,103.2,71.2,103.2z M101.6,99c-0.3,0-0.3,0.5,0,0.5
			C101.9,99.5,101.9,99,101.6,99z M104,95.1c-0.3,0-0.3,0.5,0,0.5C104.3,95.6,104.3,95.1,104,95.1z M83.2,79.6
			C83.2,79.6,83.1,79.6,83.2,79.6c-0.1-0.1-0.1-0.1-0.1-0.1c0,0-0.1,0-0.1,0c0,0-0.1,0-0.1,0c-0.1,0-0.1,0.1-0.1,0.1c0,0,0,0,0,0.1
			c0,0,0,0.1,0,0.1c0.1,0.1,0.1,0.2,0.2,0.3c0,0,0,0.1,0.1,0.1c0,0,0.1,0,0.1,0s0.1,0,0.1,0c0,0,0.1,0,0.1,0c0.1,0,0.1-0.1,0.1-0.1
			c0,0,0,0,0-0.1c0,0,0-0.1,0-0.1C83.3,79.8,83.2,79.7,83.2,79.6z M88.5,76.4C88.5,76.4,88.6,76.4,88.5,76.4
			c0.1,0.1,0.1,0.1,0.2,0.1c0,0,0,0,0.1,0c0,0,0.1,0,0.1-0.1c0.1-0.1,0.1-0.1,0.2-0.2c0,0,0-0.1,0-0.1c0,0,0-0.1,0-0.1
			c0,0,0-0.1,0-0.1c0,0,0-0.1,0-0.1c0,0,0,0-0.1,0c0,0-0.1,0-0.1,0c0,0,0,0-0.1,0c0,0-0.1,0-0.1,0.1c-0.1,0.1-0.1,0.1-0.2,0.2
			c0,0,0,0-0.1,0.1c0,0,0,0.1,0,0.1C88.5,76.3,88.5,76.3,88.5,76.4C88.5,76.4,88.5,76.4,88.5,76.4z M68,67.3c0.3,0,0.3-0.5,0-0.5
			C67.7,66.8,67.7,67.3,68,67.3z M84.7,64.3C84.7,64.3,84.7,64.3,84.7,64.3c0.1,0.1,0.2,0.1,0.3,0.1c0.1,0,0.1-0.1,0.1-0.1
			c0.1-0.1,0.1-0.2,0.2-0.3c0,0,0-0.1,0-0.1c0,0,0-0.1,0-0.1s0-0.1,0-0.1c0,0,0,0-0.1-0.1c-0.1,0-0.1,0-0.2,0
			c-0.1,0-0.1,0.1-0.1,0.1c-0.1,0.1-0.1,0.2-0.2,0.3c0,0,0,0.1,0,0.1C84.6,64.1,84.6,64.2,84.7,64.3C84.6,64.2,84.7,64.3,84.7,64.3z
			 M84.2,42.6c0.3,0,0.3-0.5,0-0.5C83.9,42.1,83.9,42.6,84.2,42.6z M98.3,57.1c0.3,0,0.3-0.5,0-0.5C97.9,56.6,97.9,57.1,98.3,57.1z
			 M101.9,50.7c0.3,0,0.3-0.5,0-0.5C101.6,50.2,101.6,50.7,101.9,50.7z M91.6,54.2c0.3,0,0.3-0.5,0-0.5
			C91.2,53.7,91.2,54.2,91.6,54.2z M96.7,38.3c0.3,0,0.3-0.5,0-0.5C96.4,37.8,96.4,38.3,96.7,38.3z M176.1,62.3c0.3,0,0.3-0.5,0-0.5
			C175.8,61.8,175.8,62.3,176.1,62.3z M193.8,61.5C193.8,61.5,193.8,61.5,193.8,61.5c0.1,0.1,0.1,0.1,0.2,0.1c0.1,0,0.1,0,0.2,0
			c0,0,0.1,0,0.1,0c0,0,0.1,0,0.1-0.1c0,0,0,0,0-0.1c0,0,0-0.1,0-0.1c0,0,0,0,0-0.1c0,0,0-0.1-0.1-0.1c0,0,0,0-0.1,0
			c0,0-0.1,0-0.1,0c-0.1,0-0.1,0-0.2,0c0,0-0.1,0-0.1,0c0,0-0.1,0-0.1,0.1c0,0,0,0-0.1,0.1c0,0,0,0.1,0,0.1c0,0,0,0,0,0.1
			C193.7,61.4,193.7,61.4,193.8,61.5z M167,64.9c0.3,0,0.3-0.5,0-0.5C166.7,64.4,166.7,64.9,167,64.9z M162.8,47.9
			c0.3,0,0.3-0.5,0-0.5C162.5,47.4,162.5,47.9,162.8,47.9z M176.1,46.4c0.3,0,0.3-0.5,0-0.5C175.8,45.9,175.8,46.4,176.1,46.4z
			 M175.3,37.5c0.3,0,0.3-0.5,0-0.5C175,37,175,37.5,175.3,37.5z M165.7,80.3c-0.3,0-0.3,0.5,0,0.5C166,80.8,166,80.3,165.7,80.3z
			 M180.7,74.9c-0.3,0-0.3,0.5,0,0.5C181,75.4,181,74.9,180.7,74.9z M187.1,86.8c-0.3,0-0.3,0.5,0,0.5
			C187.4,87.3,187.4,86.8,187.1,86.8z M186.5,92.7c0.3,0,0.3-0.5,0-0.5C186.1,92.2,186.1,92.7,186.5,92.7z M176.5,94
			C176.5,94,176.5,94,176.5,94c0.1,0.1,0.1,0.1,0.1,0.1c0,0,0.1,0,0.1,0c0,0,0,0,0.1,0c0,0,0.1,0,0.1-0.1c0,0,0,0,0,0
			c0,0,0-0.1,0-0.1c0-0.1,0-0.1,0-0.2c0,0,0-0.1,0-0.1c0,0,0-0.1-0.1-0.1c0,0,0,0-0.1-0.1c0,0-0.1,0-0.1,0c0,0,0,0-0.1,0
			c0,0-0.1,0-0.1,0.1c0,0,0,0,0,0c0,0,0,0.1,0,0.1C176.5,93.8,176.5,93.8,176.5,94C176.5,93.9,176.5,93.9,176.5,94z M176.9,88.4
			c-0.3,0-0.3,0.5,0,0.5C177.2,88.9,177.2,88.4,176.9,88.4z M162.7,103.3c-0.3,0-0.3,0.5,0,0.5C163,103.8,163,103.3,162.7,103.3z
			 M166.4,107.5c-0.3,0-0.3,0.5,0,0.5C166.7,108,166.7,107.5,166.4,107.5z M172.9,110.5c-0.3,0-0.3,0.5,0,0.5
			C173.2,111,173.2,110.5,172.9,110.5z M164.8,115.6c0.3,0,0.3-0.5,0-0.5C164.4,115.1,164.4,115.6,164.8,115.6z M170.3,119.1
			c0.3,0,0.3-0.5,0-0.5C170,118.6,170,119.1,170.3,119.1z M161.4,122.6c-0.3,0-0.3,0.5,0,0.5C161.7,123.1,161.7,122.6,161.4,122.6z
			 M161.3,114.5c0.3,0,0.3-0.5,0-0.5C160.9,114,160.9,114.5,161.3,114.5z M190,119.4c0.3,0,0.3-0.5,0-0.5
			C189.6,118.9,189.6,119.4,190,119.4z M181.2,115.9c0.3,0,0.3-0.5,0-0.5C180.9,115.4,180.9,115.9,181.2,115.9z M197.8,106.9
			c-0.1-0.1-0.1-0.1-0.2-0.2c0,0-0.1,0-0.1,0c0,0-0.1,0-0.1,0c0,0-0.1,0-0.1,0c0,0-0.1,0-0.1,0c0,0,0,0,0,0.1c0,0,0,0.1,0,0.1
			c0,0,0,0,0,0.1c0,0,0,0.1,0.1,0.1c0.1,0.1,0.1,0.1,0.2,0.2c0,0,0,0,0.1,0.1c0,0,0.1,0,0.1,0c0,0,0.1,0,0.1,0c0,0,0.1,0,0.1-0.1
			c0,0,0,0,0,0c0,0,0-0.1,0-0.1c0,0,0,0,0-0.1C197.8,107,197.8,106.9,197.8,106.9z M199.5,110.8c0.3,0,0.3-0.5,0-0.5
			C199.2,110.3,199.2,110.8,199.5,110.8z M185,103.5c-0.3,0-0.3,0.5,0,0.5C185.3,104,185.3,103.5,185,103.5z M90.3,104
			c0.3,0,0.3-0.5,0-0.5S90,104,90.3,104z M146.9,90.5c0.3,0,0.3-0.5,0-0.5C146.6,90,146.6,90.5,146.9,90.5z M144.2,95.1
			c0.3,0,0.3-0.5,0-0.5S143.9,95.1,144.2,95.1z M151.2,98C151.2,98,151.2,98,151.2,98c0.1,0.1,0.1,0.1,0.2,0.1c0.1,0,0.1,0,0.2,0
			c0,0,0.1,0,0.1,0c0,0,0.1,0,0.1,0c0,0,0-0.1,0-0.1c0,0,0-0.1,0-0.1c0,0,0,0,0-0.1c0,0,0-0.1-0.1-0.1c0,0,0,0-0.1,0
			c0,0-0.1,0-0.1,0c-0.1,0-0.1,0-0.2,0c0,0-0.1,0-0.1,0c0,0-0.1,0-0.1,0c0,0,0,0.1-0.1,0.1c0,0,0,0.1,0,0.1c0,0,0,0,0,0.1
			C151.1,98,151.2,98,151.2,98z M120.4,85.7c-0.3,0-0.3,0.5,0,0.5C120.7,86.2,120.7,85.7,120.4,85.7z M63,99.7c-0.3,0-0.3,0.5,0,0.5
			C63.3,100.2,63.3,99.7,63,99.7z M61.6,84.1c0.3,0,0.3-0.5,0-0.5C61.3,83.6,61.3,84.1,61.6,84.1z M104.6,84.1c0.3,0,0.3-0.5,0-0.5
			C104.3,83.6,104.3,84.1,104.6,84.1z M108.2,63.3c0.3,0,0.3-0.5,0-0.5C107.8,62.8,107.8,63.3,108.2,63.3z M143.9,34.2
			c0.3,0,0.3-0.5,0-0.5C143.6,33.7,143.6,34.2,143.9,34.2z M131,30.5c0.3,0,0.3-0.5,0-0.5C130.6,30,130.6,30.5,131,30.5z
			 M138.9,47.5c-0.3,0-0.3,0.5,0,0.5C139.2,48,139.2,47.5,138.9,47.5z M127.6,50.2c-0.3,0-0.3,0.5,0,0.5
			C127.9,50.7,127.9,50.2,127.6,50.2z M144.5,65.5c0.3,0,0.3-0.5,0-0.5C144.2,65,144.2,65.5,144.5,65.5z M140.1,127.7
			C140.1,127.7,140.1,127.7,140.1,127.7C140.1,127.7,140.1,127.7,140.1,127.7c-0.1-0.1-0.1-0.1-0.1-0.1h0c0,0,0,0,0,0
			c-4.8-0.1-9.5-0.1-14.3,0.1c-0.1,0-0.2,0.1-0.2,0.2c0,0.7,0,1.3,0,2c0,0.1,0.1,0.2,0.2,0.2c4.6-0.2,9.3-0.3,13.9-0.2
			c0.1,0,0.2-0.1,0.2-0.2c0-0.3,0.1-0.7,0.1-1c0-0.2,0-0.3,0.1-0.5c0-0.1,0-0.1,0-0.2c0,0,0,0,0,0c0,0-0.1,0-0.1,0c0,0,0,0,0,0
			c0,0,0,0,0,0c0,0,0.1,0,0.1-0.1c0,0,0,0,0,0C140.2,127.9,140.2,127.8,140.1,127.7z M125.9,129.7c0-0.5,0-1,0-1.5
			c4.6-0.3,9.1-0.3,13.7-0.1c0,0.1,0,0.2,0,0.3c-0.1,0.4-0.1,0.7-0.2,1.1C134.9,129.4,130.4,129.5,125.9,129.7z M140.1,128
			C140.2,128,140.1,128,140.1,128C140.1,128,140.1,128,140.1,128C140.1,128,140.1,128,140.1,128z"/>
	</g>
</g>
<g>
	<g transform="translate(139.45676, 247.857699)">
		<g>
			<path d="M-67.1-81.4c0.4,0,0.7,0.1,0.9,0.2c0.2,0.1,0.3,0.3,0.3,0.6c0,0.2-0.1,0.3-0.2,0.4c-0.1,0.1-0.2,0.2-0.4,0.2
				c-0.2,0-0.4-0.1-0.5-0.2c-0.1-0.2-0.2-0.3-0.2-0.6c-0.1,0-0.2-0.1-0.4-0.1c-0.5,0-0.9,0.3-1.1,0.9c-0.2,0.6-0.4,1.5-0.5,2.6h2.3
				l0,0.6l-2.3,0l0,0.9c-0.1,1.2-0.1,2.1-0.2,2.7l-0.1,1.1c-0.1,1.6-0.3,2.8-0.5,3.7c-0.2,0.9-0.5,1.7-1,2.3
				c-0.5,0.6-1.2,0.9-2.1,0.9c-0.4,0-0.7-0.1-0.9-0.2c-0.2-0.1-0.3-0.3-0.3-0.6c0-0.2,0.1-0.3,0.2-0.4c0.1-0.1,0.2-0.2,0.5-0.2
				c0.2,0,0.4,0.1,0.5,0.2c0.1,0.1,0.2,0.3,0.2,0.5c0.1,0.1,0.3,0.1,0.5,0.1c0.4,0,0.7-0.2,0.9-0.6c0.2-0.4,0.4-1,0.4-1.6
				c0.1-0.7,0.2-1.7,0.3-3c0.1-1.1,0.1-1.9,0.2-2.4l0.1-1.1c0.1-0.8,0.1-1.6,0.2-2.3l-1.4,0l0.1-0.7h1.4c0.2-1.3,0.5-2.3,1-3.1
				C-68.8-81-68.1-81.4-67.1-81.4z"/>
		</g>
	</g>
</g>
<g>
	<g transform="translate(143.824769, 247.857699)">
		<g>
			<path d="M-67.7-80.8c0.2,0,0.4,0.1,0.6,0.2c0.2,0.2,0.2,0.4,0.2,0.6c0,0.3-0.1,0.5-0.3,0.7c-0.2,0.2-0.4,0.2-0.6,0.2
				c-0.2,0-0.4-0.1-0.6-0.2c-0.2-0.2-0.2-0.4-0.2-0.7c0-0.3,0.1-0.5,0.2-0.6C-68.2-80.8-67.9-80.8-67.7-80.8z M-68.6-77.4
				c0.4,0,0.8,0.2,1,0.5c0.2,0.3,0.4,0.7,0.4,1.2c0,0.4-0.1,1.2-0.3,2.2c-0.1,0.7-0.2,1.2-0.3,1.7c-0.1,0.4-0.1,0.9-0.1,1.3
				c0,0.4,0.2,0.7,0.5,0.7c0.2,0,0.4-0.1,0.6-0.4c0.2-0.3,0.4-0.7,0.5-1.2l0.5,0.1c-0.1,0.6-0.4,1.1-0.7,1.6
				c-0.3,0.5-0.8,0.7-1.3,0.7c-1,0-1.5-0.5-1.5-1.5c0-0.4,0-0.8,0.1-1.2c0.1-0.4,0.1-0.9,0.2-1.5c0.1-0.7,0.2-1.2,0.2-1.5
				c0-0.4,0.1-0.7,0.1-1.1c0-0.2,0-0.4-0.1-0.5c-0.1-0.2-0.2-0.2-0.3-0.2c-0.2,0-0.4,0.1-0.6,0.4c-0.2,0.2-0.4,0.6-0.5,1.1l-0.5-0.1
				c0.1-0.5,0.3-1,0.6-1.5C-69.7-77.1-69.2-77.4-68.6-77.4z"/>
		</g>
	</g>
</g>
<g>
	<g transform="translate(148.180773, 247.857699)">
		<g>
			<path d="M-63-77.4c0.6,0,1,0.2,1.3,0.6c0.3,0.4,0.4,0.9,0.4,1.5c0,0.7-0.1,1.8-0.3,3.1c-0.1,0.8-0.2,1.4-0.2,1.7
				c0,0.2,0,0.4,0.1,0.5c0.1,0.1,0.2,0.2,0.4,0.2c0.2,0,0.4-0.1,0.6-0.4c0.2-0.2,0.4-0.6,0.6-1.2l0.4,0.1c-0.1,0.3-0.2,0.6-0.4,1
				c-0.2,0.3-0.4,0.6-0.7,0.9c-0.3,0.2-0.6,0.4-1,0.4c-0.5,0-0.8-0.1-1-0.4c-0.2-0.2-0.3-0.6-0.3-1.1c0-0.4,0.1-1.1,0.2-2.1
				c0.2-1.3,0.3-2.3,0.3-3c0-0.2-0.1-0.4-0.2-0.6c-0.1-0.2-0.3-0.3-0.6-0.3c-0.5,0-1,0.4-1.5,1.1c-0.5,0.7-0.9,1.6-1.2,2.6
				c-0.3,1-0.5,2-0.5,2.9c0,0.2,0,0.5,0,0.9h-1.4c0-0.1,0-0.2,0-0.4c0-0.2,0-0.6,0.1-1.1c0.1-0.5,0.1-1.1,0.2-1.8c0-0.1,0-0.2,0-0.3
				c0-0.1,0-0.3,0-0.4c0-0.2,0-0.3,0.1-0.5c0.1-0.7,0.1-1.1,0.1-1.4c0-0.3,0.1-0.5,0.1-0.7c0-0.2,0-0.4-0.1-0.5
				c-0.1-0.1-0.2-0.2-0.3-0.2c-0.2,0-0.4,0.1-0.6,0.4c-0.2,0.2-0.4,0.6-0.5,1.1l-0.5-0.1c0.1-0.3,0.2-0.6,0.4-1
				c0.2-0.3,0.4-0.6,0.7-0.9c0.3-0.2,0.6-0.4,1-0.4c0.8,0,1.2,0.6,1.2,1.6c0,0.3,0,0.6-0.1,1c-0.1,0.4-0.1,0.7-0.1,1h0
				c0.5-1.4,1-2.3,1.5-2.9C-64.1-77.1-63.5-77.4-63-77.4z"/>
		</g>
	</g>
</g>
<g>
	<g transform="translate(156.028792, 247.857699)">
		<g>
			<path d="M-62.2-77.4c0.6,0,1.2,0.2,1.6,0.5c0.4,0.3,0.6,0.8,0.6,1.4c0,0.8-0.5,1.4-1.4,1.9c-0.9,0.4-2,0.7-3.3,0.9
				c0,1,0.1,1.8,0.4,2.2c0.3,0.5,0.8,0.8,1.4,0.8c0.5,0,1-0.2,1.4-0.5c0.5-0.3,0.9-0.8,1.2-1.5l0.5,0.3c-0.4,0.8-0.9,1.4-1.5,1.8
				c-0.6,0.4-1.2,0.6-1.9,0.6c-1,0-1.7-0.3-2.2-0.9c-0.5-0.6-0.7-1.4-0.7-2.5c0-0.9,0.1-1.7,0.4-2.4c0.3-0.7,0.7-1.3,1.3-1.8
				C-63.7-77.2-63-77.4-62.2-77.4z M-62.4-76.8c-0.7,0-1.2,0.3-1.6,1c-0.4,0.7-0.6,1.5-0.7,2.4c0.9-0.1,1.7-0.4,2.4-0.8
				c0.7-0.4,1-0.9,1-1.5c0-0.3-0.1-0.6-0.3-0.9C-61.8-76.7-62-76.8-62.4-76.8z"/>
		</g>
	</g>
</g>
<g>
	<g transform="translate(162.220805, 247.857699)">
	</g>
</g>
<g>
	<g transform="translate(165.844811, 247.857699)">
		<g>
			<path d="M-60.3-81.3c-0.1,0.7-0.2,1.6-0.4,2.7l-0.1,1c-0.1,0.5-0.2,1.7-0.4,3.6h0c0.4-1.4,0.8-2.3,1.4-2.7
				c0.5-0.4,1.1-0.7,1.7-0.7c0.7,0,1.2,0.3,1.5,0.8c0.3,0.5,0.5,1.2,0.5,2.1c0,1.6-0.4,2.9-1.1,3.9c-0.7,1-1.8,1.5-3.3,1.5
				c-0.3,0-0.7,0-1.1-0.1c-0.4,0-0.7-0.1-1-0.2l0.2-3.7c0.2-3,0.4-5.1,0.5-6.3c0-0.4,0.1-0.7,0.1-0.8l-1.1,0.1l0.1-0.6
				c0.6,0,1.1,0,1.4-0.1c0.3-0.1,0.5-0.2,0.6-0.3H-60.3z M-58.4-76.6c-0.5,0-0.9,0.4-1.4,1.1c-0.4,0.7-0.8,1.6-1.1,2.6
				c-0.3,1-0.4,2-0.4,2.9c0.1,0.1,0.3,0.2,0.5,0.3c0.2,0.1,0.4,0.1,0.7,0.1c1,0,1.8-0.5,2.2-1.4c0.4-0.9,0.6-2,0.6-3.2
				C-57.3-75.8-57.7-76.6-58.4-76.6z"/>
		</g>
	</g>
</g>
<g>
	<g transform="translate(172.444819, 247.857699)">
		<g>
			<path d="M-55.9-77.4c0.7,0,1.4,0.1,2.1,0.3c-0.5,3.5-0.7,5.6-0.7,6.4c0,0.3,0,0.5,0.1,0.6c0.1,0.2,0.2,0.2,0.4,0.2
				c0.2,0,0.4-0.1,0.6-0.4c0.2-0.3,0.4-0.7,0.5-1.2l0.5,0.1c-0.1,0.3-0.2,0.6-0.4,1c-0.2,0.3-0.4,0.6-0.7,0.9
				c-0.3,0.2-0.6,0.4-1,0.4c-0.8,0-1.2-0.5-1.2-1.4c0-0.5,0.1-1.2,0.3-2.1h0c-0.5,1.4-1,2.4-1.5,2.9c-0.5,0.5-1.1,0.7-1.6,0.7
				c-0.6,0-1.1-0.2-1.5-0.7c-0.4-0.4-0.5-1.1-0.5-2.1c0-1,0.2-2,0.5-2.8c0.4-0.8,0.9-1.5,1.6-2C-57.8-77.1-57-77.4-55.9-77.4z
				 M-56.4-76.8c-0.6,0-1.2,0.2-1.6,0.7c-0.4,0.4-0.7,1-0.9,1.8c-0.2,0.7-0.3,1.5-0.3,2.3c0,1.6,0.3,2.4,1,2.4
				c0.5,0,0.9-0.4,1.4-1.1c0.5-0.7,0.9-1.6,1.2-2.7c0.3-1.1,0.5-2.1,0.5-3.1C-55.5-76.8-55.9-76.8-56.4-76.8z"/>
		</g>
	</g>
</g>
<g>
	<g transform="translate(179.488834, 247.857699)">
		<g>
			<path d="M-55.6-81.3c-0.1,0.4-0.2,1.2-0.4,2.3l0,0.4c-0.2,1.5-0.3,3.1-0.5,4.8h0c0.4-1.3,0.9-2.3,1.4-2.8
				c0.5-0.5,1.1-0.8,1.7-0.8c0.5,0,0.9,0.2,1.2,0.5c0.3,0.3,0.4,0.7,0.4,1.2c0,0.4-0.1,0.8-0.4,1.2c-0.2,0.4-0.6,0.8-1,1.1
				c-0.5,0.3-1,0.5-1.7,0.6v0c0.4,0,0.6,0.1,0.8,0.3c0.2,0.2,0.4,0.5,0.6,0.9c0.3,0.6,0.5,1,0.6,1.3c0.2,0.2,0.4,0.4,0.6,0.4
				c0.2,0,0.3-0.1,0.4-0.2c0.1-0.2,0.2-0.4,0.3-0.8l0.5,0.1c-0.1,0.5-0.3,0.9-0.6,1.3c-0.3,0.3-0.7,0.5-1.1,0.5
				c-0.4,0-0.7-0.2-1-0.5c-0.3-0.3-0.5-0.9-0.8-1.6c-0.2-0.6-0.4-1-0.6-1.2c-0.2-0.2-0.4-0.3-0.7-0.3l-0.4,0
				c-0.3,0.9-0.4,1.8-0.4,2.6c0,0.2,0,0.5,0,0.9h-1.3c0-0.1,0-0.2,0-0.4c0-0.8,0.1-2.3,0.2-4.6c0.2-2.3,0.4-4,0.5-5.2
				c0-0.1,0.1-0.4,0.1-0.8l-1.1,0.1l0.1-0.6c0.6,0,1.1,0,1.3-0.1c0.3-0.1,0.5-0.2,0.7-0.3H-55.6z M-53.7-76.6c-0.4,0-0.9,0.3-1.3,1
				c-0.4,0.7-0.8,1.5-1.1,2.5h0c1,0,1.8-0.2,2.3-0.6c0.5-0.4,0.8-1.1,0.8-1.9c0-0.3-0.1-0.5-0.1-0.7C-53.2-76.5-53.4-76.6-53.7-76.6
				z"/>
		</g>
	</g>
</g>
<g>
	<g transform="translate(186.196851, 247.857699)">
		<g>
			<path d="M-52.1-77.4c0.6,0,1.2,0.2,1.6,0.5c0.4,0.3,0.6,0.8,0.6,1.4c0,0.8-0.5,1.4-1.4,1.9c-0.9,0.4-2,0.7-3.3,0.9
				c0,1,0.1,1.8,0.4,2.2c0.3,0.5,0.8,0.8,1.4,0.8c0.5,0,1-0.2,1.4-0.5c0.5-0.3,0.9-0.8,1.2-1.5l0.5,0.3c-0.4,0.8-0.9,1.4-1.5,1.8
				c-0.6,0.4-1.2,0.6-1.9,0.6c-1,0-1.7-0.3-2.2-0.9c-0.5-0.6-0.7-1.4-0.7-2.5c0-0.9,0.1-1.7,0.4-2.4c0.3-0.7,0.7-1.3,1.3-1.8
				C-53.7-77.2-52.9-77.4-52.1-77.4z M-52.3-76.8c-0.7,0-1.2,0.3-1.6,1c-0.4,0.7-0.6,1.5-0.7,2.4c0.9-0.1,1.7-0.4,2.4-0.8
				c0.7-0.4,1-0.9,1-1.5c0-0.3-0.1-0.6-0.3-0.9C-51.7-76.7-52-76.8-52.3-76.8z"/>
		</g>
	</g>
</g>
<g>
	<g transform="translate(192.388862, 247.857699)">
		<g>
			<path d="M-46.6-81.3c-0.2,1.1-0.3,2-0.4,2.8l-0.3,2.5c-0.2,1.4-0.3,2.5-0.4,3.4c-0.1,0.8-0.1,1.5-0.1,2c0,0.3,0,0.5,0.1,0.6
				c0.1,0.1,0.2,0.2,0.4,0.2c0.2,0,0.4-0.1,0.6-0.4c0.2-0.3,0.4-0.7,0.5-1.2l0.5,0.1c-0.1,0.3-0.2,0.6-0.4,1
				c-0.2,0.3-0.4,0.6-0.7,0.9s-0.6,0.4-1,0.4c-0.4,0-0.7-0.1-0.9-0.4c-0.2-0.2-0.3-0.6-0.3-1.1c0-0.6,0.1-1.3,0.2-2.1h-0.1
				c-0.4,1.3-0.8,2.2-1.4,2.8c-0.5,0.5-1.1,0.8-1.6,0.8c-0.7,0-1.2-0.3-1.6-0.9c-0.4-0.6-0.5-1.3-0.5-2.2c0-1.1,0.2-2,0.5-2.8
				c0.4-0.8,0.9-1.4,1.6-1.9c0.7-0.4,1.5-0.7,2.6-0.7c0.3,0,0.6,0,0.9,0.1l0.2-2c0.1-0.4,0.1-0.7,0.2-1l-1.2,0.1l0.1-0.6
				c0.6,0,1.1,0,1.4-0.1c0.3-0.1,0.5-0.2,0.6-0.3H-46.6z M-49.6-76.8c-0.7,0-1.3,0.2-1.8,0.7c-0.4,0.4-0.8,1-1,1.7
				c-0.2,0.7-0.3,1.4-0.3,2.1c0,0.8,0.1,1.4,0.3,1.9c0.2,0.5,0.5,0.7,0.9,0.7c0.3,0,0.6-0.2,1-0.6c0.3-0.4,0.7-0.9,0.9-1.5
				c0.3-0.6,0.5-1.3,0.7-2c0.1-0.6,0.3-1.5,0.4-2.8C-48.8-76.8-49.1-76.8-49.6-76.8z"/>
		</g>
	</g>
</g>
<g>
	<g transform="translate(199.516877, 247.857699)">
	</g>
</g>
<g>
	<g transform="translate(203.140883, 247.857699)">
		<g>
			<path d="M-45.7-77.4c0.4,0,0.7,0,1.1,0.1c0.4,0,0.7,0.1,0.9,0.2c-0.1,0.9-0.2,2.6-0.4,5.2l-0.2,2.4c-0.1,1.5-0.5,2.7-1.2,3.4
				c-0.7,0.8-1.7,1.1-2.9,1.1c-0.3,0-0.6,0-1-0.1c-0.4-0.1-0.7-0.2-0.9-0.4c-0.3-0.2-0.4-0.5-0.4-0.8c0-0.2,0.1-0.4,0.2-0.6
				c0.1-0.2,0.3-0.2,0.5-0.2c0.2,0,0.4,0.1,0.5,0.2c0.1,0.1,0.2,0.3,0.2,0.6c0,0.1,0,0.3-0.1,0.4c0.1,0.1,0.2,0.2,0.5,0.3
				c0.2,0.1,0.4,0.1,0.6,0.1c0.8,0,1.3-0.3,1.7-0.8c0.4-0.5,0.7-1.1,0.8-1.9c0.1-0.7,0.3-1.7,0.4-2.8c0.1-0.8,0.1-1.4,0.2-1.7h0
				c-0.4,1.4-0.9,2.4-1.4,2.9c-0.5,0.5-1,0.7-1.6,0.7c-0.7,0-1.3-0.3-1.6-0.8c-0.4-0.6-0.5-1.3-0.5-2.3c0-0.9,0.2-1.8,0.5-2.6
				c0.3-0.8,0.9-1.4,1.6-1.9C-47.6-77.1-46.7-77.4-45.7-77.4z M-46-76.8c-0.7,0-1.3,0.2-1.8,0.7c-0.5,0.5-0.8,1-1,1.7
				c-0.2,0.7-0.3,1.3-0.3,2c0,0.8,0.1,1.4,0.3,1.9c0.2,0.5,0.5,0.7,0.9,0.7c0.5,0,0.9-0.4,1.4-1.1c0.4-0.7,0.8-1.6,1.1-2.7
				c0.3-1.1,0.5-2.1,0.5-3C-45.2-76.7-45.5-76.8-46-76.8z"/>
		</g>
	</g>
</g>
<g>
	<g transform="translate(209.824891, 247.857699)">
		<g>
			<path d="M-44.2-77.4c0.6,0,1.1,0.1,1.5,0.4c0.5,0.3,0.8,0.7,1.1,1.2c0.3,0.5,0.4,1.2,0.4,1.9c0,0.9-0.2,1.7-0.5,2.4
				c-0.3,0.7-0.8,1.3-1.4,1.8c-0.6,0.4-1.3,0.6-2.1,0.6c-1,0-1.8-0.3-2.3-1c-0.5-0.7-0.8-1.5-0.8-2.6c0-0.9,0.2-1.7,0.5-2.4
				c0.3-0.7,0.8-1.3,1.4-1.7C-45.7-77.2-45-77.4-44.2-77.4z M-44.4-76.8c-0.5,0-0.9,0.2-1.2,0.5c-0.3,0.3-0.6,0.8-0.8,1.4
				c-0.2,0.6-0.3,1.2-0.3,2c0,0.9,0.1,1.6,0.4,2.3c0.3,0.7,0.8,1,1.4,1c0.5,0,1-0.2,1.3-0.6c0.3-0.4,0.6-0.9,0.8-1.5
				c0.2-0.6,0.2-1.2,0.2-1.8c0-0.9-0.1-1.6-0.4-2.3C-43.3-76.5-43.7-76.8-44.4-76.8z"/>
		</g>
	</g>
</g>
<g>
	<g transform="translate(216.544901, 247.857699)">
		<g>
			<path d="M-41.9-77.4c0.6,0,1.1,0.1,1.5,0.4c0.5,0.3,0.8,0.7,1.1,1.2c0.3,0.5,0.4,1.2,0.4,1.9c0,0.9-0.2,1.7-0.5,2.4
				c-0.3,0.7-0.8,1.3-1.4,1.8c-0.6,0.4-1.3,0.6-2.1,0.6c-1,0-1.8-0.3-2.3-1c-0.5-0.7-0.8-1.5-0.8-2.6c0-0.9,0.2-1.7,0.5-2.4
				c0.3-0.7,0.8-1.3,1.4-1.7C-43.4-77.2-42.7-77.4-41.9-77.4z M-42.2-76.8c-0.5,0-0.9,0.2-1.2,0.5c-0.3,0.3-0.6,0.8-0.8,1.4
				c-0.2,0.6-0.3,1.2-0.3,2c0,0.9,0.1,1.6,0.4,2.3c0.3,0.7,0.8,1,1.4,1c0.5,0,1-0.2,1.3-0.6c0.3-0.4,0.6-0.9,0.8-1.5
				c0.2-0.6,0.2-1.2,0.2-1.8c0-0.9-0.1-1.6-0.4-2.3C-41-76.5-41.5-76.8-42.2-76.8z"/>
		</g>
	</g>
</g>
<g>
	<g transform="translate(223.264911, 247.857699)">
		<g>
			<path d="M-36.3-81.3c-0.2,1.1-0.3,2-0.4,2.8l-0.3,2.5c-0.2,1.4-0.3,2.5-0.4,3.4c-0.1,0.8-0.1,1.5-0.1,2c0,0.3,0,0.5,0.1,0.6
				c0.1,0.1,0.2,0.2,0.4,0.2c0.2,0,0.4-0.1,0.6-0.4c0.2-0.3,0.4-0.7,0.5-1.2l0.5,0.1c-0.1,0.3-0.2,0.6-0.4,1
				c-0.2,0.3-0.4,0.6-0.7,0.9s-0.6,0.4-1,0.4c-0.4,0-0.7-0.1-0.9-0.4c-0.2-0.2-0.3-0.6-0.3-1.1c0-0.6,0.1-1.3,0.2-2.1h-0.1
				c-0.4,1.3-0.8,2.2-1.4,2.8c-0.5,0.5-1.1,0.8-1.6,0.8c-0.7,0-1.2-0.3-1.6-0.9c-0.4-0.6-0.5-1.3-0.5-2.2c0-1.1,0.2-2,0.5-2.8
				c0.4-0.8,0.9-1.4,1.6-1.9c0.7-0.4,1.5-0.7,2.6-0.7c0.3,0,0.6,0,0.9,0.1l0.2-2c0.1-0.4,0.1-0.7,0.2-1l-1.2,0.1l0.1-0.6
				c0.6,0,1.1,0,1.4-0.1c0.3-0.1,0.5-0.2,0.6-0.3H-36.3z M-39.3-76.8c-0.7,0-1.3,0.2-1.8,0.7c-0.4,0.4-0.8,1-1,1.7
				c-0.2,0.7-0.3,1.4-0.3,2.1c0,0.8,0.1,1.4,0.3,1.9c0.2,0.5,0.5,0.7,0.9,0.7c0.3,0,0.6-0.2,1-0.6c0.3-0.4,0.7-0.9,0.9-1.5
				c0.3-0.6,0.5-1.3,0.7-2c0.1-0.6,0.3-1.5,0.4-2.8C-38.5-76.8-38.8-76.8-39.3-76.8z"/>
		</g>
	</g>
</g>
<g>
	<g transform="translate(230.392926, 247.857699)">
		<g>
			<path d="M-38.3-77.4c0.6,0,1.2,0.1,1.7,0.4c0.5,0.3,0.7,0.7,0.7,1.1c0,0.2-0.1,0.4-0.2,0.5c-0.1,0.1-0.3,0.2-0.5,0.2
				c-0.2,0-0.3-0.1-0.5-0.2s-0.2-0.3-0.2-0.5c0-0.2,0-0.3,0.1-0.5c-0.1-0.2-0.2-0.3-0.4-0.5c-0.2-0.1-0.5-0.2-0.8-0.2
				c-0.4,0-0.7,0.1-1,0.4c-0.3,0.2-0.5,0.5-0.5,0.9c0,0.3,0.1,0.6,0.4,0.8c0.3,0.2,0.7,0.5,1.3,0.9c0.5,0.3,0.9,0.5,1.1,0.8
				c0.3,0.2,0.6,0.5,0.8,0.8c0.2,0.3,0.3,0.6,0.3,1c0,0.5-0.1,0.9-0.4,1.2c-0.2,0.3-0.6,0.6-1.1,0.8c-0.5,0.2-1,0.3-1.6,0.3
				c-0.7,0-1.3-0.2-1.8-0.5c-0.5-0.3-0.8-0.7-0.8-1.2c0-0.2,0.1-0.4,0.2-0.5c0.1-0.2,0.3-0.2,0.5-0.2c0.2,0,0.4,0.1,0.5,0.2
				c0.1,0.1,0.2,0.3,0.2,0.5c0,0.2-0.1,0.3-0.1,0.5c0.1,0.2,0.2,0.4,0.5,0.5c0.3,0.1,0.5,0.2,0.8,0.2c0.6,0,1-0.1,1.3-0.4
				c0.3-0.3,0.4-0.6,0.4-1.1c0-0.3-0.2-0.7-0.5-0.9c-0.3-0.3-0.7-0.6-1.3-0.9c-0.7-0.4-1.2-0.7-1.6-1.1c-0.3-0.3-0.5-0.7-0.5-1.2
				c0-0.4,0.1-0.7,0.4-1.1c0.2-0.3,0.6-0.6,1-0.8C-39.3-77.3-38.8-77.4-38.3-77.4z"/>
		</g>
	</g>
</g>
<g>
	<g transform="translate(92.937309, 233.003656)">
		<g>
			<path d="M-84.1-74.8c0.5,0,0.8-0.1,1-0.4c0.2-0.3,0.2-0.7,0.2-1.2v-0.5l0-8.9l-1.8,0c-0.7,0-1.2,0.2-1.5,0.7
				c-0.3,0.5-0.5,1.2-0.5,2.3h-0.7l0.1-3.7H-77l0.1,3.7h-0.7c0-0.7-0.1-1.3-0.2-1.8c-0.1-0.4-0.4-0.8-0.7-1
				c-0.3-0.2-0.8-0.3-1.4-0.3h-1.5l0,9.5c0,0.6,0,1.1-0.1,1.4l1.5-0.1v0.8h-4.1V-74.8z"/>
		</g>
	</g>
</g>
<g>
	<g transform="translate(106.040282, 233.003656)">
		<g>
			<path d="M-81.5-83.3l-0.2-0.7c-0.3-0.9-0.4-1.4-0.5-1.7l-1,0v-0.8h4.2v0.6c-0.5,0-0.8,0.1-1,0.2c-0.2,0.1-0.3,0.4-0.3,0.7
				c0,0.3,0.1,0.6,0.2,1c0.2,0.8,0.5,1.7,0.9,2.6c0.1,0.2,0.1,0.4,0.2,0.6c0.1,0.2,0.2,0.5,0.3,0.8c0.1,0.2,0.2,0.5,0.2,0.8
				c0.1,0.3,0.2,0.5,0.2,0.6c0.2,0.6,0.4,1.1,0.5,1.5h0c0.2-0.8,0.5-1.6,0.7-2.3c0.4-1.3,0.9-2.8,1.4-4.3c0.5-1.6,0.8-2.5,1-2.9h0.6
				c0.1,0.5,0.4,1.2,0.7,2.3c0.3,1,0.6,1.8,0.7,2.2c0.4,1,0.6,1.7,0.7,2.1c0.1,0.3,0.2,0.8,0.5,1.4c0.2,0.7,0.4,1.3,0.6,1.7h0
				c0.3-0.9,0.5-1.7,0.7-2.2c0.6-1.7,1.1-3.2,1.4-4.4c0.1-0.4,0.2-0.8,0.4-1.1c0.2-0.6,0.4-1,0.5-1.3l-1.4,0.1v-0.8h3.5v0.6
				c-0.4,0-0.7,0.1-1,0.3c-0.2,0.1-0.4,0.4-0.6,0.7c-0.2,0.3-0.4,0.9-0.6,1.6l-0.9,2.7c-0.9,2.8-1.7,5-2.2,6.6h-0.5l-3.3-9.4
				l-3.1,9.4h-0.5L-81.5-83.3z"/>
		</g>
	</g>
</g>
<g>
	<g transform="translate(123.798481, 233.003656)">
		<g>
			<path d="M-76.5-74.8c0.4,0,0.7-0.1,0.9-0.3c0.2-0.2,0.3-0.4,0.3-0.6c0-0.2,0-0.7,0-1.2v-7.6c0-0.5,0-0.9,0.1-1.2l-1.3,0.1v-0.8
				h8.4l0.1,3.1h-0.6c0-1-0.2-1.6-0.6-2c-0.4-0.3-1-0.5-1.8-0.5l-1.5,0c-0.4,0-0.7,0.1-0.9,0.2c-0.2,0.1-0.3,0.3-0.4,0.6
				c0,0.3-0.1,0.7-0.1,1.2v2.8l3.3,0l-0.1-1.5h0.8v3.7h-0.6c0-0.4-0.1-0.8-0.2-1c-0.1-0.2-0.3-0.4-0.5-0.4c-0.2-0.1-0.5-0.1-0.9-0.1
				l-0.5,0l-1.3,0v4c0,0.6,0,1.1,0,1.4l3.3-0.1c0.8,0,1.4-0.2,1.9-0.6c0.4-0.4,0.6-1.1,0.6-2.1h0.6l-0.1,3.4h-9V-74.8z"/>
		</g>
	</g>
</g>
<g>
	<g transform="translate(136.665419, 233.003656)">
		<g>
			<path d="M-72.2-74.8c0.4,0,0.7-0.1,0.9-0.3c0.2-0.2,0.3-0.4,0.3-0.6c0-0.2,0-0.7,0-1.2v-7.6c0-0.5,0-0.9,0.1-1.2l-1.3,0.1v-0.8
				h8.4l0.1,3.1h-0.6c0-1-0.2-1.6-0.6-2c-0.4-0.3-1-0.5-1.8-0.5l-1.5,0c-0.4,0-0.7,0.1-0.9,0.2c-0.2,0.1-0.3,0.3-0.4,0.6
				c0,0.3-0.1,0.7-0.1,1.2v2.8l3.3,0l-0.1-1.5h0.8v3.7h-0.6c0-0.4-0.1-0.8-0.2-1c-0.1-0.2-0.3-0.4-0.5-0.4c-0.2-0.1-0.5-0.1-0.9-0.1
				l-0.5,0l-1.3,0v4c0,0.6,0,1.1,0,1.4l3.3-0.1c0.8,0,1.4-0.2,1.9-0.6c0.4-0.4,0.6-1.1,0.6-2.1h0.6l-0.1,3.4h-9V-74.8z"/>
		</g>
	</g>
</g>
<g>
	<g transform="translate(149.532357, 233.003656)">
		<g>
			<path d="M-67.9-74.8c0.4,0,0.7-0.1,0.9-0.3c0.2-0.2,0.3-0.4,0.3-0.6c0-0.2,0-0.7,0-1.2v-7.6c0-0.5,0-0.9,0.1-1.2l-1.3,0.1v-0.8
				h3.9v0.6c-0.4,0-0.7,0.1-0.9,0.3c-0.2,0.2-0.3,0.4-0.3,0.6c0,0.2,0,0.7,0,1.2v7.5c0,0.6,0,1.1,0,1.4l3.3-0.1
				c0.8,0,1.3-0.2,1.7-0.7c0.4-0.5,0.6-1.2,0.6-2.2h0.6l-0.1,3.6h-8.7V-74.8z"/>
		</g>
	</g>
</g>
<g>
	<g transform="translate(161.822303, 233.003656)">
		<g>
			<path d="M-63.8-74.8c0.4,0,0.7-0.1,0.9-0.3c0.2-0.2,0.3-0.4,0.3-0.6c0-0.2,0-0.7,0-1.2v-7.6c0-0.5,0-0.9,0.1-1.2l-1.3,0.1v-0.8
				h3.9v0.6c-0.4,0-0.7,0.1-0.9,0.3c-0.2,0.2-0.3,0.4-0.3,0.6c0,0.2,0,0.7,0,1.2v7.4c0,0.6,0,1.1,0,1.4l1.2-0.1v0.8h-3.9V-74.8z"/>
		</g>
	</g>
</g>
<g>
	<g transform="translate(170.925712, 233.003656)">
		<g>
			<path d="M-58.8-84.1L-58.8-84.1l0,7.5c0,0.8,0,1.4,0,1.7l1.3-0.1v0.8h-3.2v-0.6c0.5,0,0.8-0.1,0.9-0.4c0.2-0.3,0.2-0.6,0.2-1
				l0-9.6l-1.2,0.1v-0.8h2.1l7.5,10h0v-8c0-0.5,0-0.9,0.1-1.2l-1.3,0.1v-0.8h3.2v0.6c-0.3,0-0.6,0.1-0.8,0.2
				c-0.2,0.1-0.3,0.3-0.3,0.5c0,0.2-0.1,0.5-0.1,0.9v0.6l0,9.8h-0.8L-58.8-84.1z"/>
		</g>
	</g>
</g>
<g>
	<g transform="translate(185.628507, 233.003656)">
		<g>
			<path d="M-50-73.9c-1.2,0-2.2-0.2-3.1-0.7c-0.9-0.5-1.6-1.2-2.1-2.1c-0.5-0.9-0.8-2-0.8-3.3c0-1.2,0.2-2.2,0.7-3.2
				c0.5-1,1.2-1.8,2.1-2.5c0.9-0.6,2-1,3.3-1c0.6,0,1.3,0.1,1.9,0.2c0.7,0.2,1.2,0.4,1.7,0.7l-0.1-0.9h1v4H-46
				c-0.1-1.1-0.5-1.9-1.2-2.5c-0.7-0.6-1.6-0.9-2.6-0.9c-0.8,0-1.6,0.2-2.3,0.7c-0.7,0.5-1.2,1.1-1.6,2c-0.4,0.8-0.6,1.8-0.6,2.9
				c0,1.1,0.2,2.1,0.6,3c0.4,0.9,1,1.5,1.7,2c0.7,0.5,1.5,0.7,2.4,0.7c0.5,0,1-0.1,1.5-0.2c0.5-0.2,1-0.4,1.5-0.7v-3.8l-1.2,0.1
				v-0.8h4v0.6c-0.6,0-0.9,0.2-1.1,0.6c-0.1,0.4-0.2,0.9-0.2,1.4v2.7h-0.5c-0.5,0-1.1,0.2-1.9,0.5c-0.3,0.1-0.8,0.2-1.2,0.3
				C-49.2-73.9-49.6-73.9-50-73.9z"/>
		</g>
	</g>
</g>
<g>
	<g transform="translate(200.318189, 233.003656)">
	</g>
</g>
<g>
	<g transform="translate(208.477437, 233.003656)">
		<g>
			<path d="M-48.2-74.8c0.4,0,0.7-0.1,0.9-0.3c0.2-0.2,0.3-0.4,0.3-0.6c0-0.2,0-0.7,0-1.3v-7.4c0-0.6,0-1.1,0.1-1.4l-1.3,0.1v-0.8
				c1.7,0,3,0,4,0c1.4,0,2.4,0.2,3.2,0.7c0.8,0.5,1.1,1.2,1.1,2.2c0,0.6-0.2,1.2-0.8,1.7c-0.5,0.5-1.2,0.9-2.1,1v0
				c1.2,0,2.2,0.3,2.9,0.9c0.7,0.6,1,1.3,1,2.2c0,0.7-0.2,1.3-0.5,1.9c-0.4,0.5-0.9,0.9-1.5,1.2c-0.6,0.3-1.3,0.4-2.1,0.4h-5.1
				V-74.8z M-44.2-80.9c0.9,0,1.6-0.3,2-0.8c0.4-0.5,0.6-1.1,0.6-1.8c0-0.9-0.3-1.5-0.8-1.8c-0.5-0.3-1.1-0.5-1.8-0.5
				c-0.4,0-0.7,0.1-0.9,0.2c-0.2,0.1-0.3,0.3-0.4,0.5c-0.1,0.2-0.1,0.6-0.1,1v3.2L-44.2-80.9z M-43.7-74.8c0.9,0,1.6-0.2,2.2-0.7
				s0.8-1.1,0.8-2c0-1-0.3-1.7-0.8-2.1c-0.6-0.4-1.3-0.6-2.2-0.6c-0.6,0-1.2,0-1.8,0v4c0,0.6,0,1.1,0,1.4c0.2,0,0.6,0,1.2,0H-43.7z"
				/>
		</g>
	</g>
</g>
<g>
	<g transform="translate(221.344371, 233.003656)">
		<g>
			<path d="M-45-74.8c0.3,0,0.5-0.1,0.7-0.2c0.2-0.1,0.3-0.3,0.4-0.5c0.1-0.2,0.2-0.5,0.4-1l0.2-0.5l3.6-9.8h0.4l3.9,10
				c0.1,0.3,0.2,0.7,0.3,1c0.1,0.4,0.1,0.7,0.1,0.9l1.2-0.1v0.8h-4v-0.6c0.7,0,1-0.3,1-0.8c0-0.2-0.1-0.5-0.2-0.8l-0.6-1.6l-4.5,0.1
				c-0.2,0.5-0.4,1.1-0.6,1.9c-0.1,0.4-0.3,0.8-0.4,1.2l1.4-0.1v0.8H-45V-74.8z M-37.7-78.7L-39-82l-0.8-2.1h0l-0.7,2l-0.9,2.6
				l-0.3,0.9H-37.7z"/>
		</g>
	</g>
</g>
<g>
	<g transform="translate(234.263754, 233.003656)">
		<g>
			<path d="M-39.6-74.8c0.4,0,0.7-0.1,0.9-0.3c0.2-0.2,0.3-0.4,0.3-0.6c0-0.2,0-0.7,0-1.2v-7.6c0-0.5,0-0.9,0.1-1.2l-1.3,0.1v-0.8
				h3.9v0.6c-0.4,0-0.7,0.1-0.9,0.3c-0.2,0.2-0.3,0.4-0.3,0.6c0,0.2,0,0.7,0,1.2v2.9h1.3l2.2-3.5c0.4-0.7,0.8-1.1,1.2-1.5l-1.1,0
				v-0.7h3.8v0.6c-0.5,0-1,0.1-1.4,0.3c-0.4,0.1-0.7,0.4-1.1,0.7c-0.3,0.3-0.7,0.8-1.1,1.4l-1.7,2.7c0.3,0.2,0.5,0.3,0.7,0.5
				c0.2,0.2,0.4,0.4,0.5,0.6c0.2,0.2,0.2,0.3,0.3,0.4l2,2.6c0.4,0.6,0.8,1,1.1,1.3c0.3,0.3,0.5,0.4,0.8,0.5c0.2,0.1,0.5,0.1,0.8,0.1
				v0.6h-2.1c-0.3,0-0.9-0.6-1.8-1.7l-2.1-2.8c-0.3-0.4-0.5-0.7-0.7-0.9c-0.2-0.2-0.4-0.4-0.6-0.5h-0.9v3.9c0,0.6,0,1.1,0,1.4
				l1.2-0.1v0.8h-3.9V-74.8z"/>
		</g>
	</g>
</g>
<g>
	<g transform="translate(247.930597, 233.003656)">
		<g>
			<path d="M-35.1-74.8c0.4,0,0.7-0.1,0.9-0.3c0.2-0.2,0.3-0.4,0.3-0.6c0-0.2,0-0.7,0-1.2v-7.6c0-0.5,0-0.9,0.1-1.2l-1.3,0.1v-0.8
				h8.4l0.1,3.1h-0.6c0-1-0.2-1.6-0.6-2c-0.4-0.3-1-0.5-1.8-0.5l-1.5,0c-0.4,0-0.7,0.1-0.9,0.2c-0.2,0.1-0.3,0.3-0.4,0.6
				c0,0.3-0.1,0.7-0.1,1.2v2.8l3.3,0l-0.1-1.5h0.8v3.7H-29c0-0.4-0.1-0.8-0.2-1c-0.1-0.2-0.3-0.4-0.5-0.4c-0.2-0.1-0.5-0.1-0.9-0.1
				l-0.5,0l-1.3,0v4c0,0.6,0,1.1,0,1.4l3.3-0.1c0.8,0,1.4-0.2,1.9-0.6c0.4-0.4,0.6-1.1,0.6-2.1h0.6l-0.1,3.4h-9V-74.8z"/>
		</g>
	</g>
</g>
<g>
	<g transform="translate(260.797531, 233.003656)">
		<g>
			<path d="M-30.8-74.8c0.4,0,0.7-0.1,0.9-0.3c0.2-0.2,0.3-0.4,0.3-0.6c0-0.2,0-0.7,0-1.2v-7.6c0-0.5,0-0.9,0.1-1.2l-1.3,0.1v-0.8
				c1.2,0,2.1,0,2.8,0c0.6,0,1,0,1.3,0c1.6,0,2.8,0.3,3.6,0.8c0.8,0.5,1.1,1.3,1.1,2.3c0,0.8-0.2,1.5-0.7,2.2
				c-0.5,0.6-1.3,1.1-2.5,1.3c0.2,0.1,0.4,0.3,0.5,0.5c0.2,0.2,0.4,0.5,0.7,1l1.2,1.9c0.3,0.4,0.5,0.7,0.6,1
				c0.2,0.2,0.4,0.4,0.6,0.5c0.2,0.1,0.5,0.2,0.9,0.2v0.6H-23c-0.3-0.3-0.6-0.5-0.8-0.8c-0.2-0.3-0.5-0.7-0.8-1.1l-1.2-1.9l-0.2-0.4
				c-0.2-0.3-0.4-0.6-0.5-0.8c-0.1-0.2-0.3-0.4-0.5-0.5c-0.1,0-0.3,0-0.5,0c-0.3,0-0.6,0-0.7,0v3.4c0,0.6,0,1.1,0,1.4l1.2-0.1v0.8
				h-3.9V-74.8z M-27.3-80.3c2.4,0,3.6-0.9,3.6-2.8c0-0.9-0.3-1.6-0.8-2c-0.5-0.4-1.3-0.7-2.4-0.7c-0.4,0-0.7,0.1-0.9,0.2
				c-0.2,0.2-0.3,0.4-0.3,0.6c0,0.2,0,0.6,0,1.2v3.4C-27.7-80.3-27.5-80.3-27.3-80.3z"/>
		</g>
	</g>
</g>
<g>
	<g transform="translate(273.743144, 233.003656)">
		<g>
			<path d="M-23.7-74.8c0.5,0,0.8-0.1,1-0.4c0.2-0.3,0.2-0.7,0.2-1.2v-0.5l0-2l-3.1-4.8c-0.5-0.8-0.8-1.5-0.9-2l-1.1,0v-0.8h4.5v0.6
				c-0.9,0-1.4,0.3-1.4,0.8c0,0.3,0.1,0.7,0.4,1.1l0.5,0.9c0.8,1.2,1.4,2.2,1.9,3h0c0.4-0.8,1-2,1.9-3.6l0.4-0.7
				c0.3-0.6,0.6-1.1,0.8-1.3l-1.4,0.1v-0.8h3.6v0.6c-0.6,0-1,0.2-1.4,0.6c-0.4,0.3-0.8,0.9-1.2,1.7l-2.2,4.2c0,0.6,0,1.2,0,1.8
				c0,0.6,0,1.1,0,1.3c0,0.6,0,1.1-0.1,1.4l1.5-0.1v0.8h-4.1V-74.8z"/>
		</g>
	</g>
</g>
</svg>
